<svg xmlns="http://www.w3.org/2000/svg" xmlns:xlink="http://www.w3.org/1999/xlink" width="500" zoomAndPan="magnify" viewBox="0 0 375 374.999991" height="500" preserveAspectRatio="xMidYMid meet" version="1.0"><defs><clipPath id="a8c03c7661"><path d="M 96.6875 103.65625 L 278.1875 103.65625 L 278.1875 285.15625 L 96.6875 285.15625 Z M 96.6875 103.65625 " clip-rule="nonzero"/></clipPath></defs><g clip-path="url(#a8c03c7661)"><path fill="#13fe64" d="M 150.054688 103.65625 C 120.761719 103.65625 96.6875 127.695312 96.6875 157.023438 L 96.6875 231.789062 C 96.6875 261.082031 120.726562 285.15625 150.054688 285.15625 L 224.820312 285.15625 C 254.113281 285.15625 278.1875 261.113281 278.1875 231.789062 L 278.1875 157.023438 C 278.1875 127.726562 254.144531 103.65625 224.820312 103.65625 Z M 150.054688 120.15625 L 224.820312 120.15625 C 245.21875 120.15625 261.6875 136.621094 261.6875 157.023438 L 261.6875 231.789062 C 261.6875 252.1875 245.21875 268.65625 224.820312 268.65625 L 150.054688 268.65625 C 129.65625 268.65625 113.1875 252.1875 113.1875 231.789062 L 113.1875 157.023438 C 113.1875 136.621094 129.65625 120.15625 150.054688 120.15625 Z M 236.164062 138.203125 C 232.007812 138.203125 228.6875 141.519531 228.6875 145.679688 C 228.6875 149.835938 232.007812 153.15625 236.164062 153.15625 C 240.320312 153.15625 243.640625 149.835938 243.640625 145.679688 C 243.640625 141.519531 240.320312 138.203125 236.164062 138.203125 Z M 187.4375 144.90625 C 160.207031 144.90625 137.9375 167.171875 137.9375 194.40625 C 137.9375 221.636719 160.207031 243.90625 187.4375 243.90625 C 214.667969 243.90625 236.9375 221.636719 236.9375 194.40625 C 236.9375 167.171875 214.667969 144.90625 187.4375 144.90625 Z M 187.4375 161.40625 C 205.773438 161.40625 220.4375 176.066406 220.4375 194.40625 C 220.4375 212.742188 205.773438 227.40625 187.4375 227.40625 C 169.101562 227.40625 154.4375 212.742188 154.4375 194.40625 C 154.4375 176.066406 169.101562 161.40625 187.4375 161.40625 Z M 187.4375 161.40625 " fill-opacity="1" fill-rule="nonzero"/></g></svg>