<svg xmlns="http://www.w3.org/2000/svg" xmlns:xlink="http://www.w3.org/1999/xlink" width="500" zoomAndPan="magnify" viewBox="0 0 375 374.999991" height="500" preserveAspectRatio="xMidYMid meet" version="1.0"><defs><clipPath id="446dd7fe74"><path d="M 100.074219 100.074219 L 274.824219 100.074219 L 274.824219 274.824219 L 100.074219 274.824219 Z M 100.074219 100.074219 " clip-rule="nonzero"/></clipPath></defs><g clip-path="url(#446dd7fe74)"><path fill="#13fe64" d="M 260.226562 100.074219 L 114.761719 100.074219 C 106.71875 100.074219 100.25 106.632812 100.25 114.585938 L 100.25 260.3125 C 100.25 268.355469 106.804688 274.824219 114.761719 274.824219 L 260.140625 274.824219 C 268.179688 274.824219 274.652344 268.269531 274.652344 260.3125 L 274.652344 114.585938 C 274.738281 106.632812 268.269531 100.074219 260.226562 100.074219 Z M 151.914062 244.230469 L 126.125 244.230469 L 126.125 166.777344 L 151.914062 166.777344 Z M 138.976562 157.421875 C 130.847656 157.421875 124.289062 150.867188 124.289062 142.734375 C 124.289062 134.605469 130.847656 128.050781 138.976562 128.050781 C 147.105469 128.050781 153.664062 134.605469 153.664062 142.734375 C 153.664062 150.867188 147.105469 157.421875 138.976562 157.421875 Z M 248.949219 244.230469 L 223.074219 244.230469 L 222.460938 198.246094 C 222.460938 198.246094 223.074219 186.007812 209.699219 186.09375 C 196.324219 186.183594 194.488281 198.246094 194.488281 198.246094 L 194.488281 244.230469 L 168.4375 244.230469 L 168.4375 166.777344 L 193.4375 166.777344 L 193.4375 177.441406 C 193.4375 177.441406 194.488281 173.945312 200.257812 169.835938 C 206.027344 165.726562 215.554688 164.851562 219.664062 165.027344 C 223.773438 165.203125 229.367188 164.503906 238.722656 170.972656 C 248.773438 177.878906 249.035156 195.972656 249.035156 195.972656 Z M 248.949219 244.230469 " fill-opacity="1" fill-rule="nonzero"/></g></svg>