<?xml version="1.0" encoding="UTF-8"?><svg id="a" xmlns="http://www.w3.org/2000/svg" viewBox="0 0 1383.09 1383"><defs><style>.b{fill:#14fe64;}.c{fill:#1a1a1a;}</style></defs><rect class="c" x="7.75" y="61" width="1322" height="1322" rx="234.6" ry="234.6"/><path class="b" d="M449.25,1158s-85.64-208.58-298.5-169.44v-185.64l240.07-130.35c89.8-48.76,175.88-93.07,242.49-172.89,28.99-34.74,51.57-76.01,58.05-120.79,3.07-21.18,2.12-44.12-9.52-62.07-13.01-20.05-36.01-29.12-58.44-34.04-11.13-2.44-63.54-13.83-71.64-4.74,36.23-40.66,100.01-58.48,152.88-56.06,82.04,3.75,165.93,51.85,160.75,143.44-1.41,24.95-7.92,50.04-16.66,73.4-30.13,80.52-83.72,152.26-137.69,218.2,0,0,118.67-11.01,241,47.71,31.65,15.19,60.89,37.87,86.35,61.74,54.19,50.79,99.11,114.54,124.35,185.37,12.8,35.93,20.54,73.67,22.23,111.79,.63,14.21,5.7,94.36-17.62,94.36-35.48,0-718.12,0-718.12,0Z"/><path class="c" d="M574.1,792.57l-19.38-9.77c-2.89-1.45-6.32-1.43-9.18,.08l-19.21,10.09c-7.2,3.78-15.71-2.16-14.39-10.06l3.51-21.06c.52-3.14-.56-6.32-2.91-8.52l-15.73-14.77c-5.9-5.54-2.75-15.29,5.33-16.51l21.55-3.25c3.21-.48,5.97-2.48,7.38-5.34l9.49-19.22c3.56-7.21,14.01-7.29,17.69-.15l9.81,19.06c1.46,2.84,4.25,4.79,7.47,5.22l21.6,2.89c8.1,1.08,11.41,10.79,5.6,16.42l-15.49,15.03c-2.31,2.24-3.34,5.44-2.77,8.57l3.86,21c1.45,7.88-6.96,13.96-14.22,10.3Z"/><path class="b" d="M401.53,380.01s-131.91,37.3-148.94,135.22c0,0-23.38,112.96,101.97,134.76l99.49-50.84s-192.03-88.19-52.52-219.14Z"/></svg>