<svg xmlns="http://www.w3.org/2000/svg" xmlns:xlink="http://www.w3.org/1999/xlink" width="1366" zoomAndPan="magnify" viewBox="0 0 1024.5 576" height="768" preserveAspectRatio="xMidYMid meet" version="1.0"><defs><clipPath id="6dbeaef118"><path d="M 325.085938 66.8125 L 639.261719 66.8125 L 639.261719 509.441406 L 325.085938 509.441406 Z M 325.085938 66.8125 " clip-rule="nonzero"/></clipPath><clipPath id="20ba321b1e"><path d="M 639.261719 470.316406 L 639.261719 233.332031 C 639.261719 211.640625 621.644531 194.113281 600.046875 194.203125 C 578.355469 194.292969 560.742188 176.675781 560.828125 154.984375 L 560.917969 106.03125 C 560.917969 84.34375 543.390625 66.8125 521.789062 66.8125 L 364.300781 66.8125 C 342.703125 66.8125 325.171875 84.34375 325.171875 105.941406 L 325.171875 322.652344 C 325.171875 335.578125 331.546875 347.617188 342.171875 354.878906 L 556.667969 502.539062 C 563.21875 507.054688 570.921875 509.441406 578.886719 509.441406 L 600.132812 509.441406 C 621.734375 509.441406 639.261719 491.914062 639.261719 470.316406 Z M 639.261719 470.316406 " clip-rule="nonzero"/></clipPath></defs><g clip-path="url(#6dbeaef118)"><g clip-path="url(#20ba321b1e)"><path fill="#13fe64" d="M 639.261719 509.441406 L 325.085938 509.441406 L 325.085938 66.816406 L 639.261719 66.816406 Z M 639.261719 509.441406 " fill-opacity="1" fill-rule="nonzero"/></g></g></svg>