<svg xmlns="http://www.w3.org/2000/svg" xmlns:xlink="http://www.w3.org/1999/xlink" width="1366" zoomAndPan="magnify" viewBox="0 0 1024.5 576" height="768" preserveAspectRatio="xMidYMid meet" version="1.0"><defs><g/><clipPath id="6fa91417ad"><path d="M 349.265625 66.8125 L 663.445312 66.8125 L 663.445312 509.441406 L 349.265625 509.441406 Z M 349.265625 66.8125 " clip-rule="nonzero"/></clipPath><clipPath id="779614bc9a"><path d="M 663.445312 470.316406 L 663.445312 233.332031 C 663.445312 211.640625 645.828125 194.113281 624.226562 194.203125 C 602.539062 194.292969 584.921875 176.675781 585.011719 154.984375 L 585.097656 106.03125 C 585.097656 84.34375 567.570312 66.8125 545.972656 66.8125 L 388.484375 66.8125 C 366.882812 66.8125 349.355469 84.34375 349.355469 105.941406 L 349.355469 322.652344 C 349.355469 335.578125 355.730469 347.617188 366.351562 354.878906 L 580.851562 502.539062 C 587.402344 507.054688 595.101562 509.441406 603.070312 509.441406 L 624.316406 509.441406 C 645.917969 509.441406 663.445312 491.914062 663.445312 470.316406 Z M 663.445312 470.316406 " clip-rule="nonzero"/></clipPath></defs><g clip-path="url(#6fa91417ad)"><g clip-path="url(#779614bc9a)"><path fill="#13fe64" d="M 663.445312 509.441406 L 349.265625 509.441406 L 349.265625 66.816406 L 663.445312 66.816406 Z M 663.445312 509.441406 " fill-opacity="1" fill-rule="nonzero"/></g></g><g fill="#000000" fill-opacity="1"><g transform="translate(518.054865, 367.834134)"><g><path d="M 0.558594 0 L 3.460938 0 L 4.4375 -4.679688 L 11.597656 -4.679688 L 13.636719 -6.339844 L 14.917969 -12.335938 L 13.578125 -13.996094 L 3.519531 -13.996094 Z M 4.980469 -7.199219 L 5.898438 -11.476562 L 11.378906 -11.476562 L 11.738281 -11.015625 L 11.015625 -7.65625 L 10.457031 -7.199219 Z M 4.980469 -7.199219 "/></g></g></g><g fill="#000000" fill-opacity="1"><g transform="translate(533.22911, 367.834134)"><g><path d="M 0.558594 0 L 3.460938 0 L 4.4375 -4.679688 L 9.757812 -4.679688 L 10.257812 -4.078125 L 9.398438 0 L 12.296875 0 L 13.238281 -4.5 L 12.117188 -5.9375 L 13.855469 -7.378906 L 14.917969 -12.335938 L 13.578125 -13.996094 L 3.519531 -13.996094 Z M 4.980469 -7.199219 L 5.898438 -11.476562 L 11.378906 -11.476562 L 11.738281 -11.015625 L 11.039062 -7.796875 L 10.296875 -7.199219 Z M 4.980469 -7.199219 "/></g></g></g><g fill="#000000" fill-opacity="1"><g transform="translate(548.923156, 367.834134)"><g><path d="M 0.558594 0 L 3.460938 0 L 4.320312 -4.117188 L 10.257812 -4.117188 L 9.398438 0 L 12.296875 0 L 14.917969 -12.335938 L 13.578125 -13.996094 L 5.199219 -13.996094 L 3.179688 -12.335938 Z M 4.859375 -6.660156 L 5.796875 -11.015625 L 6.359375 -11.476562 L 11.378906 -11.476562 L 11.738281 -11.015625 L 10.796875 -6.660156 Z M 4.859375 -6.660156 "/></g></g></g><g fill="#000000" fill-opacity="1"><g transform="translate(564.697172, 367.834134)"><g><path d="M 0.558594 0 L 3.460938 0 L 5.796875 -11.015625 L 6.359375 -11.476562 L 11.378906 -11.476562 L 11.738281 -11.015625 L 9.398438 0 L 12.296875 0 L 14.917969 -12.335938 L 13.578125 -13.996094 L 5.199219 -13.996094 L 3.179688 -12.335938 Z M 0.558594 0 "/></g></g></g><g fill="#000000" fill-opacity="1"><g transform="translate(580.471192, 367.834134)"><g><path d="M 0.558594 0 L 3.460938 0 L 4.320312 -4.117188 L 10.257812 -4.117188 L 9.398438 0 L 12.296875 0 L 14.917969 -12.335938 L 13.578125 -13.996094 L 5.199219 -13.996094 L 3.179688 -12.335938 Z M 4.859375 -6.660156 L 5.796875 -11.015625 L 6.359375 -11.476562 L 11.378906 -11.476562 L 11.738281 -11.015625 L 10.796875 -6.660156 Z M 4.859375 -6.660156 "/></g></g></g><g fill="#000000" fill-opacity="1"><g transform="translate(596.245211, 367.834134)"><g><path d="M 4.457031 0 L 8.398438 0 L 13.117188 -3.898438 L 15.257812 -13.996094 L 12.355469 -13.996094 L 10.417969 -4.839844 L 7.597656 -2.519531 L 6.296875 -2.519531 L 4.480469 -4.839844 L 6.417969 -13.996094 L 3.519531 -13.996094 L 1.378906 -3.898438 Z M 4.457031 0 "/></g></g></g><g fill="#000000" fill-opacity="1"><g transform="translate(518.054865, 389.065649)"><g><path d="M 1.699219 0 L 8.957031 0 L 10.707031 -1.457031 L 11.261719 -4.054688 L 8.75 -4.054688 L 8.4375 -2.582031 L 7.953125 -2.183594 L 3.605469 -2.183594 L 3.308594 -2.582031 L 4.800781 -9.546875 L 5.265625 -9.945312 L 9.617188 -9.945312 L 9.929688 -9.546875 L 9.617188 -8.074219 L 12.128906 -8.074219 L 12.683594 -10.691406 L 11.523438 -12.128906 L 4.261719 -12.128906 L 2.53125 -10.691406 L 0.554688 -1.457031 Z M 1.699219 0 "/></g></g></g><g fill="#000000" fill-opacity="1"><g transform="translate(531.2389, 389.065649)"><g><path d="M 1.699219 0 L 8.957031 0 L 10.707031 -1.457031 L 12.683594 -10.691406 L 11.523438 -12.128906 L 4.261719 -12.128906 L 2.53125 -10.691406 L 0.554688 -1.457031 Z M 3.308594 -2.582031 L 4.800781 -9.546875 L 5.265625 -9.945312 L 9.617188 -9.945312 L 9.929688 -9.546875 L 8.4375 -2.582031 L 7.953125 -2.183594 L 3.605469 -2.183594 Z M 3.308594 -2.582031 "/></g></g></g><g fill="#000000" fill-opacity="1"><g transform="translate(544.422935, 389.065649)"><g><path d="M 1.144531 -4.210938 L 7.519531 -4.210938 L 7.9375 -6.1875 L 1.558594 -6.1875 Z M 1.144531 -4.210938 "/></g></g></g><g fill="#000000" fill-opacity="1"><g transform="translate(553.847588, 389.065649)"><g><path d="M 0.484375 0 L 2.996094 0 L 3.863281 -4.105469 L 8.921875 -4.105469 L 9.390625 -6.289062 L 4.332031 -6.289062 L 5.113281 -9.945312 L 11.902344 -9.945312 L 12.355469 -12.128906 L 3.050781 -12.128906 Z M 0.484375 0 "/></g></g></g><g fill="#000000" fill-opacity="1"><g transform="translate(565.507086, 389.065649)"><g><path d="M 1.699219 0 L 8.957031 0 L 10.707031 -1.457031 L 12.683594 -10.691406 L 11.523438 -12.128906 L 4.261719 -12.128906 L 2.53125 -10.691406 L 0.554688 -1.457031 Z M 3.308594 -2.582031 L 4.800781 -9.546875 L 5.265625 -9.945312 L 9.617188 -9.945312 L 9.929688 -9.546875 L 8.4375 -2.582031 L 7.953125 -2.183594 L 3.605469 -2.183594 Z M 3.308594 -2.582031 "/></g></g></g><g fill="#000000" fill-opacity="1"><g transform="translate(578.691122, 389.065649)"><g><path d="M 1.941406 0 L 9.199219 0 L 10.949219 -1.457031 L 13.21875 -12.128906 L 10.707031 -12.128906 L 8.679688 -2.582031 L 8.195312 -2.183594 L 3.847656 -2.183594 L 3.535156 -2.582031 L 5.5625 -12.128906 L 3.050781 -12.128906 L 0.78125 -1.457031 Z M 1.941406 0 "/></g></g></g><g fill="#000000" fill-opacity="1"><g transform="translate(592.360247, 389.065649)"><g><path d="M 0.484375 0 L 2.996094 0 L 5.023438 -9.546875 L 5.511719 -9.945312 L 9.859375 -9.945312 L 10.171875 -9.546875 L 8.144531 0 L 10.65625 0 L 12.925781 -10.691406 L 11.765625 -12.128906 L 4.503906 -12.128906 L 2.753906 -10.691406 Z M 0.484375 0 "/></g></g></g><g fill="#000000" fill-opacity="1"><g transform="translate(606.029367, 389.065649)"><g><path d="M 0.484375 0 L 8.558594 0 L 11.347656 -2.320312 L 12.941406 -9.824219 L 11.125 -12.128906 L 3.050781 -12.128906 Z M 3.449219 -2.183594 L 5.113281 -9.945312 L 9.425781 -9.945312 L 10.238281 -8.90625 L 9.027344 -3.238281 L 7.761719 -2.183594 Z M 3.449219 -2.183594 "/></g></g></g><g fill="#000000" fill-opacity="1"><g transform="translate(619.559892, 389.065649)"><g><path d="M 0.484375 0 L 9.789062 0 L 10.238281 -2.183594 L 3.449219 -2.183594 L 4.054688 -4.972656 L 9.113281 -4.972656 L 9.5625 -7.15625 L 4.503906 -7.15625 L 5.113281 -9.945312 L 11.902344 -9.945312 L 12.355469 -12.128906 L 3.050781 -12.128906 Z M 0.484375 0 "/></g></g></g><g fill="#000000" fill-opacity="1"><g transform="translate(631.756444, 389.065649)"><g><path d="M 0.484375 0 L 2.996094 0 L 3.847656 -4.054688 L 8.457031 -4.054688 L 8.890625 -3.535156 L 8.144531 0 L 10.65625 0 L 11.46875 -3.898438 L 10.5 -5.144531 L 12.007812 -6.394531 L 12.925781 -10.691406 L 11.765625 -12.128906 L 3.050781 -12.128906 Z M 4.3125 -6.238281 L 5.113281 -9.945312 L 9.859375 -9.945312 L 10.171875 -9.546875 L 9.5625 -6.757812 L 8.921875 -6.238281 Z M 4.3125 -6.238281 "/></g></g></g><g fill="#000000" fill-opacity="1"><g transform="translate(359.030113, 142.37179)"><g><path d="M 6.507812 -10.503906 L 6.507812 -11.644531 C 4.949219 -11.535156 4.058594 -10.097656 4.058594 -8.679688 C 4.058594 -7.570312 4.667969 -6.695312 5.726562 -6.695312 C 6.585938 -6.695312 7.148438 -7.273438 7.148438 -8.054688 C 7.148438 -8.816406 6.585938 -9.378906 5.773438 -9.378906 C 5.695312 -9.378906 5.601562 -9.378906 5.523438 -9.363281 C 5.554688 -9.988281 5.898438 -10.363281 6.507812 -10.503906 Z M 0.640625 -8.679688 C 0.640625 -7.570312 1.234375 -6.695312 2.292969 -6.695312 C 3.152344 -6.695312 3.714844 -7.273438 3.714844 -8.054688 C 3.714844 -8.816406 3.152344 -9.378906 2.339844 -9.378906 C 2.261719 -9.378906 2.167969 -9.378906 2.089844 -9.363281 C 2.121094 -9.988281 2.464844 -10.363281 3.074219 -10.503906 L 3.074219 -11.644531 C 1.515625 -11.535156 0.640625 -10.097656 0.640625 -8.679688 Z M 0.640625 -8.679688 "/></g></g></g><g fill="#000000" fill-opacity="1"><g transform="translate(366.813308, 142.37179)"><g/></g></g><g fill="#000000" fill-opacity="1"><g transform="translate(370.478736, 142.37179)"><g><path d="M 3.667969 0 L 6.117188 0 L 8.601562 -7.070312 L 11.082031 0 L 13.515625 0 L 17.042969 -10.925781 L 14.421875 -10.925781 L 13.375 -7.601562 L 12.203125 -3.964844 L 10.941406 -7.601562 L 9.769531 -10.925781 L 7.414062 -10.925781 L 6.242188 -7.601562 L 4.996094 -4.011719 L 3.839844 -7.601562 L 2.792969 -10.925781 L 0.15625 -10.925781 Z M 3.667969 0 "/></g></g></g><g fill="#000000" fill-opacity="1"><g transform="translate(387.667267, 142.37179)"><g><path d="M 5.058594 0.21875 C 7.070312 0.21875 8.664062 -0.8125 9.378906 -2.542969 L 6.976562 -2.542969 C 6.585938 -1.996094 5.882812 -1.6875 5.105469 -1.6875 C 4.027344 -1.6875 3.183594 -2.292969 2.964844 -3.417969 L 9.535156 -3.417969 C 9.675781 -6.414062 7.898438 -8.414062 5.089844 -8.414062 C 2.433594 -8.414062 0.609375 -6.648438 0.609375 -4.105469 C 0.609375 -1.546875 2.417969 0.21875 5.058594 0.21875 Z M 2.980469 -4.917969 C 3.246094 -5.914062 4.058594 -6.523438 5.105469 -6.523438 C 6.195312 -6.523438 6.976562 -5.914062 7.242188 -4.917969 Z M 2.980469 -4.917969 "/></g></g></g><g fill="#000000" fill-opacity="1"><g transform="translate(397.790092, 142.37179)"><g/></g></g><g fill="#000000" fill-opacity="1"><g transform="translate(401.455519, 142.37179)"><g><path d="M 3.917969 0.15625 C 5.136719 0.15625 6.132812 -0.234375 6.835938 -0.953125 L 7.101562 0 L 8.863281 0 L 8.863281 -4.933594 C 8.863281 -7.101562 7.398438 -8.414062 4.949219 -8.414062 C 2.855469 -8.414062 1.484375 -7.414062 1.1875 -5.632812 L 3.464844 -5.632812 C 3.605469 -6.210938 4.199219 -6.601562 4.964844 -6.601562 C 5.898438 -6.601562 6.539062 -6.070312 6.539062 -5.257812 L 6.539062 -4.886719 L 3.574219 -4.886719 C 1.871094 -4.886719 0.78125 -3.902344 0.78125 -2.386719 C 0.78125 -0.8125 1.980469 0.15625 3.917969 0.15625 Z M 3.121094 -2.480469 C 3.121094 -3.042969 3.589844 -3.402344 4.308594 -3.402344 L 6.554688 -3.402344 C 6.507812 -2.292969 5.648438 -1.546875 4.464844 -1.546875 C 3.652344 -1.546875 3.121094 -1.917969 3.121094 -2.480469 Z M 3.121094 -2.480469 "/></g></g></g><g fill="#000000" fill-opacity="1"><g transform="translate(411.344381, 142.37179)"><g><path d="M 1.1875 0 L 3.558594 0 L 3.558594 -3.621094 C 3.558594 -5.382812 4.386719 -6.039062 5.742188 -6.039062 L 6.648438 -6.039062 L 6.648438 -8.195312 L 5.757812 -8.195312 C 4.558594 -8.195312 3.792969 -7.867188 3.261719 -7.101562 L 2.949219 -8.195312 L 1.1875 -8.195312 Z M 1.1875 0 "/></g></g></g><g fill="#000000" fill-opacity="1"><g transform="translate(418.519265, 142.37179)"><g><path d="M 5.058594 0.21875 C 7.070312 0.21875 8.664062 -0.8125 9.378906 -2.542969 L 6.976562 -2.542969 C 6.585938 -1.996094 5.882812 -1.6875 5.105469 -1.6875 C 4.027344 -1.6875 3.183594 -2.292969 2.964844 -3.417969 L 9.535156 -3.417969 C 9.675781 -6.414062 7.898438 -8.414062 5.089844 -8.414062 C 2.433594 -8.414062 0.609375 -6.648438 0.609375 -4.105469 C 0.609375 -1.546875 2.417969 0.21875 5.058594 0.21875 Z M 2.980469 -4.917969 C 3.246094 -5.914062 4.058594 -6.523438 5.105469 -6.523438 C 6.195312 -6.523438 6.976562 -5.914062 7.242188 -4.917969 Z M 2.980469 -4.917969 "/></g></g></g><g fill="#000000" fill-opacity="1"><g transform="translate(428.642089, 142.37179)"><g/></g></g><g fill="#000000" fill-opacity="1"><g transform="translate(432.307517, 142.37179)"><g><path d="M 5.214844 0.21875 C 7.929688 0.21875 9.800781 -1.546875 9.800781 -4.105469 C 9.800781 -6.648438 7.929688 -8.414062 5.214844 -8.414062 C 2.480469 -8.414062 0.609375 -6.648438 0.609375 -4.105469 C 0.609375 -1.546875 2.480469 0.21875 5.214844 0.21875 Z M 2.949219 -4.105469 C 2.949219 -5.445312 3.886719 -6.382812 5.214844 -6.382812 C 6.539062 -6.382812 7.460938 -5.445312 7.460938 -4.105469 C 7.460938 -2.761719 6.539062 -1.824219 5.214844 -1.824219 C 3.886719 -1.824219 2.949219 -2.761719 2.949219 -4.105469 Z M 2.949219 -4.105469 "/></g></g></g><g fill="#000000" fill-opacity="1"><g transform="translate(442.711099, 142.37179)"><g><path d="M 1.1875 0 L 3.558594 0 L 3.558594 -4.292969 C 3.558594 -5.585938 4.277344 -6.382812 5.367188 -6.382812 C 6.382812 -6.382812 6.992188 -5.664062 6.992188 -4.464844 L 6.992188 0 L 9.363281 0 L 9.363281 -4.714844 C 9.363281 -6.976562 8.070312 -8.414062 5.929688 -8.414062 C 4.839844 -8.414062 3.855469 -8.039062 3.199219 -7.273438 L 2.949219 -8.195312 L 1.1875 -8.195312 Z M 1.1875 0 "/></g></g></g><g fill="#000000" fill-opacity="1"><g transform="translate(453.099083, 142.37179)"><g/></g></g><g fill="#000000" fill-opacity="1"><g transform="translate(456.764511, 142.37179)"><g><path d="M 3.917969 0.15625 C 5.136719 0.15625 6.132812 -0.234375 6.835938 -0.953125 L 7.101562 0 L 8.863281 0 L 8.863281 -4.933594 C 8.863281 -7.101562 7.398438 -8.414062 4.949219 -8.414062 C 2.855469 -8.414062 1.484375 -7.414062 1.1875 -5.632812 L 3.464844 -5.632812 C 3.605469 -6.210938 4.199219 -6.601562 4.964844 -6.601562 C 5.898438 -6.601562 6.539062 -6.070312 6.539062 -5.257812 L 6.539062 -4.886719 L 3.574219 -4.886719 C 1.871094 -4.886719 0.78125 -3.902344 0.78125 -2.386719 C 0.78125 -0.8125 1.980469 0.15625 3.917969 0.15625 Z M 3.121094 -2.480469 C 3.121094 -3.042969 3.589844 -3.402344 4.308594 -3.402344 L 6.554688 -3.402344 C 6.507812 -2.292969 5.648438 -1.546875 4.464844 -1.546875 C 3.652344 -1.546875 3.121094 -1.917969 3.121094 -2.480469 Z M 3.121094 -2.480469 "/></g></g></g><g fill="#000000" fill-opacity="1"><g transform="translate(466.653372, 142.37179)"><g/></g></g><g fill="#000000" fill-opacity="1"><g transform="translate(470.3188, 142.37179)"><g><path d="M 1.1875 0 L 3.558594 0 L 3.558594 -4.433594 C 3.558594 -5.617188 4.214844 -6.382812 5.226562 -6.382812 C 6.210938 -6.382812 6.820312 -5.648438 6.820312 -4.496094 L 6.820312 0 L 9.160156 0 L 9.160156 -4.433594 C 9.160156 -5.617188 9.816406 -6.382812 10.832031 -6.382812 C 11.816406 -6.382812 12.421875 -5.648438 12.421875 -4.496094 L 12.421875 0 L 14.796875 0 L 14.796875 -4.777344 C 14.796875 -7.023438 13.453125 -8.414062 11.363281 -8.414062 C 10.113281 -8.414062 9.082031 -7.929688 8.414062 -7.070312 C 7.835938 -7.945312 6.882812 -8.414062 5.710938 -8.414062 C 4.667969 -8.414062 3.777344 -8.054688 3.183594 -7.351562 L 2.949219 -8.195312 L 1.1875 -8.195312 Z M 1.1875 0 "/></g></g></g><g fill="#000000" fill-opacity="1"><g transform="translate(486.13475, 142.37179)"><g><path d="M 1.1875 0 L 3.558594 0 L 3.558594 -8.195312 L 1.1875 -8.195312 Z M 0.84375 -10.847656 C 0.84375 -9.972656 1.46875 -9.363281 2.371094 -9.363281 C 3.277344 -9.363281 3.902344 -9.972656 3.902344 -10.847656 C 3.902344 -11.722656 3.277344 -12.328125 2.371094 -12.328125 C 1.46875 -12.328125 0.84375 -11.722656 0.84375 -10.847656 Z M 0.84375 -10.847656 "/></g></g></g><g fill="#000000" fill-opacity="1"><g transform="translate(490.876415, 142.37179)"><g><path d="M 4.339844 0.21875 C 6.554688 0.21875 7.898438 -0.75 7.898438 -2.308594 C 7.898438 -3.652344 6.898438 -4.511719 4.871094 -4.917969 C 3.464844 -5.199219 3.027344 -5.429688 3.027344 -5.929688 C 3.027344 -6.414062 3.464844 -6.695312 4.167969 -6.695312 C 4.964844 -6.695312 5.445312 -6.335938 5.492188 -5.710938 L 7.757812 -5.710938 C 7.648438 -7.445312 6.367188 -8.414062 4.183594 -8.414062 C 1.980469 -8.414062 0.734375 -7.523438 0.734375 -5.929688 C 0.734375 -4.574219 1.671875 -3.761719 3.761719 -3.386719 C 5.027344 -3.167969 5.554688 -2.839844 5.554688 -2.324219 C 5.554688 -1.839844 5.121094 -1.546875 4.371094 -1.546875 C 3.496094 -1.546875 2.964844 -1.964844 2.949219 -2.636719 L 0.625 -2.636719 C 0.625 -0.921875 2.089844 0.21875 4.339844 0.21875 Z M 4.339844 0.21875 "/></g></g></g><g fill="#000000" fill-opacity="1"><g transform="translate(499.408293, 142.37179)"><g><path d="M 4.339844 0.21875 C 6.554688 0.21875 7.898438 -0.75 7.898438 -2.308594 C 7.898438 -3.652344 6.898438 -4.511719 4.871094 -4.917969 C 3.464844 -5.199219 3.027344 -5.429688 3.027344 -5.929688 C 3.027344 -6.414062 3.464844 -6.695312 4.167969 -6.695312 C 4.964844 -6.695312 5.445312 -6.335938 5.492188 -5.710938 L 7.757812 -5.710938 C 7.648438 -7.445312 6.367188 -8.414062 4.183594 -8.414062 C 1.980469 -8.414062 0.734375 -7.523438 0.734375 -5.929688 C 0.734375 -4.574219 1.671875 -3.761719 3.761719 -3.386719 C 5.027344 -3.167969 5.554688 -2.839844 5.554688 -2.324219 C 5.554688 -1.839844 5.121094 -1.546875 4.371094 -1.546875 C 3.496094 -1.546875 2.964844 -1.964844 2.949219 -2.636719 L 0.625 -2.636719 C 0.625 -0.921875 2.089844 0.21875 4.339844 0.21875 Z M 4.339844 0.21875 "/></g></g></g><g fill="#000000" fill-opacity="1"><g transform="translate(507.940171, 142.37179)"><g><path d="M 1.1875 0 L 3.558594 0 L 3.558594 -8.195312 L 1.1875 -8.195312 Z M 0.84375 -10.847656 C 0.84375 -9.972656 1.46875 -9.363281 2.371094 -9.363281 C 3.277344 -9.363281 3.902344 -9.972656 3.902344 -10.847656 C 3.902344 -11.722656 3.277344 -12.328125 2.371094 -12.328125 C 1.46875 -12.328125 0.84375 -11.722656 0.84375 -10.847656 Z M 0.84375 -10.847656 "/></g></g></g><g fill="#000000" fill-opacity="1"><g transform="translate(512.681836, 142.37179)"><g><path d="M 5.214844 0.21875 C 7.929688 0.21875 9.800781 -1.546875 9.800781 -4.105469 C 9.800781 -6.648438 7.929688 -8.414062 5.214844 -8.414062 C 2.480469 -8.414062 0.609375 -6.648438 0.609375 -4.105469 C 0.609375 -1.546875 2.480469 0.21875 5.214844 0.21875 Z M 2.949219 -4.105469 C 2.949219 -5.445312 3.886719 -6.382812 5.214844 -6.382812 C 6.539062 -6.382812 7.460938 -5.445312 7.460938 -4.105469 C 7.460938 -2.761719 6.539062 -1.824219 5.214844 -1.824219 C 3.886719 -1.824219 2.949219 -2.761719 2.949219 -4.105469 Z M 2.949219 -4.105469 "/></g></g></g><g fill="#000000" fill-opacity="1"><g transform="translate(523.085418, 142.37179)"><g><path d="M 1.1875 0 L 3.558594 0 L 3.558594 -4.292969 C 3.558594 -5.585938 4.277344 -6.382812 5.367188 -6.382812 C 6.382812 -6.382812 6.992188 -5.664062 6.992188 -4.464844 L 6.992188 0 L 9.363281 0 L 9.363281 -4.714844 C 9.363281 -6.976562 8.070312 -8.414062 5.929688 -8.414062 C 4.839844 -8.414062 3.855469 -8.039062 3.199219 -7.273438 L 2.949219 -8.195312 L 1.1875 -8.195312 Z M 1.1875 0 "/></g></g></g><g fill="#000000" fill-opacity="1"><g transform="translate(533.473402, 142.37179)"><g/></g></g><g fill="#000000" fill-opacity="1"><g transform="translate(537.13883, 142.37179)"><g><path d="M 5.136719 0 L 6.632812 0 L 6.632812 -2.058594 L 5.648438 -2.058594 C 4.714844 -2.058594 4.277344 -2.511719 4.277344 -3.464844 L 4.277344 -6.257812 L 6.523438 -6.257812 L 6.523438 -8.195312 L 4.277344 -8.195312 L 4.277344 -10.316406 L 2.433594 -10.316406 L 2.292969 -9.253906 C 2.167969 -8.414062 1.933594 -8.195312 1.046875 -8.195312 L 0.3125 -8.195312 L 0.3125 -6.257812 L 1.902344 -6.257812 L 1.902344 -3.105469 C 1.902344 -1.109375 3.058594 0 5.136719 0 Z M 5.136719 0 "/></g></g></g><g fill="#000000" fill-opacity="1"><g transform="translate(544.422902, 142.37179)"><g><path d="M 5.214844 0.21875 C 7.929688 0.21875 9.800781 -1.546875 9.800781 -4.105469 C 9.800781 -6.648438 7.929688 -8.414062 5.214844 -8.414062 C 2.480469 -8.414062 0.609375 -6.648438 0.609375 -4.105469 C 0.609375 -1.546875 2.480469 0.21875 5.214844 0.21875 Z M 2.949219 -4.105469 C 2.949219 -5.445312 3.886719 -6.382812 5.214844 -6.382812 C 6.539062 -6.382812 7.460938 -5.445312 7.460938 -4.105469 C 7.460938 -2.761719 6.539062 -1.824219 5.214844 -1.824219 C 3.886719 -1.824219 2.949219 -2.761719 2.949219 -4.105469 Z M 2.949219 -4.105469 "/></g></g></g><g fill="#000000" fill-opacity="1"><g transform="translate(359.030113, 165.621788)"><g><path d="M 6.148438 0.21875 C 8.601562 0.21875 10.332031 -1.5625 10.332031 -4.105469 C 10.332031 -6.617188 8.601562 -8.414062 6.148438 -8.414062 C 4.964844 -8.414062 3.949219 -7.992188 3.214844 -7.257812 L 2.949219 -8.195312 L 1.1875 -8.195312 L 1.1875 3.121094 L 3.558594 3.121094 L 3.558594 -0.640625 C 4.246094 -0.09375 5.136719 0.21875 6.148438 0.21875 Z M 3.464844 -4.105469 C 3.464844 -5.429688 4.402344 -6.382812 5.726562 -6.382812 C 7.070312 -6.382812 7.992188 -5.429688 7.992188 -4.105469 C 7.992188 -2.761719 7.070312 -1.824219 5.726562 -1.824219 C 4.402344 -1.824219 3.464844 -2.761719 3.464844 -4.105469 Z M 3.464844 -4.105469 "/></g></g></g><g fill="#000000" fill-opacity="1"><g transform="translate(369.964015, 165.621788)"><g><path d="M 1.1875 0 L 3.558594 0 L 3.558594 -3.621094 C 3.558594 -5.382812 4.386719 -6.039062 5.742188 -6.039062 L 6.648438 -6.039062 L 6.648438 -8.195312 L 5.757812 -8.195312 C 4.558594 -8.195312 3.792969 -7.867188 3.261719 -7.101562 L 2.949219 -8.195312 L 1.1875 -8.195312 Z M 1.1875 0 "/></g></g></g><g fill="#000000" fill-opacity="1"><g transform="translate(377.138899, 165.621788)"><g><path d="M 5.214844 0.21875 C 7.929688 0.21875 9.800781 -1.546875 9.800781 -4.105469 C 9.800781 -6.648438 7.929688 -8.414062 5.214844 -8.414062 C 2.480469 -8.414062 0.609375 -6.648438 0.609375 -4.105469 C 0.609375 -1.546875 2.480469 0.21875 5.214844 0.21875 Z M 2.949219 -4.105469 C 2.949219 -5.445312 3.886719 -6.382812 5.214844 -6.382812 C 6.539062 -6.382812 7.460938 -5.445312 7.460938 -4.105469 C 7.460938 -2.761719 6.539062 -1.824219 5.214844 -1.824219 C 3.886719 -1.824219 2.949219 -2.761719 2.949219 -4.105469 Z M 2.949219 -4.105469 "/></g></g></g><g fill="#000000" fill-opacity="1"><g transform="translate(387.542481, 165.621788)"><g><path d="M 3.542969 0 L 5.914062 0 L 9.332031 -8.195312 L 6.757812 -8.195312 L 5.820312 -5.617188 L 4.746094 -2.839844 L 3.652344 -5.617188 L 2.730469 -8.195312 L 0.140625 -8.195312 Z M 3.542969 0 "/></g></g></g><g fill="#000000" fill-opacity="1"><g transform="translate(397.010211, 165.621788)"><g><path d="M 1.1875 0 L 3.558594 0 L 3.558594 -8.195312 L 1.1875 -8.195312 Z M 0.84375 -10.847656 C 0.84375 -9.972656 1.46875 -9.363281 2.371094 -9.363281 C 3.277344 -9.363281 3.902344 -9.972656 3.902344 -10.847656 C 3.902344 -11.722656 3.277344 -12.328125 2.371094 -12.328125 C 1.46875 -12.328125 0.84375 -11.722656 0.84375 -10.847656 Z M 0.84375 -10.847656 "/></g></g></g><g fill="#000000" fill-opacity="1"><g transform="translate(401.751876, 165.621788)"><g><path d="M 4.777344 0.21875 C 5.960938 0.21875 6.976562 -0.203125 7.710938 -0.9375 L 7.992188 0 L 9.753906 0 L 9.753906 -11.550781 L 7.382812 -11.550781 L 7.382812 -7.554688 C 6.679688 -8.101562 5.789062 -8.414062 4.777344 -8.414062 C 2.339844 -8.414062 0.609375 -6.617188 0.609375 -4.105469 C 0.609375 -1.5625 2.339844 0.21875 4.777344 0.21875 Z M 2.949219 -4.105469 C 2.949219 -5.429688 3.871094 -6.382812 5.214844 -6.382812 C 6.539062 -6.382812 7.460938 -5.429688 7.460938 -4.105469 C 7.460938 -2.761719 6.539062 -1.824219 5.214844 -1.824219 C 3.871094 -1.824219 2.949219 -2.761719 2.949219 -4.105469 Z M 2.949219 -4.105469 "/></g></g></g><g fill="#000000" fill-opacity="1"><g transform="translate(412.685777, 165.621788)"><g><path d="M 5.058594 0.21875 C 7.070312 0.21875 8.664062 -0.8125 9.378906 -2.542969 L 6.976562 -2.542969 C 6.585938 -1.996094 5.882812 -1.6875 5.105469 -1.6875 C 4.027344 -1.6875 3.183594 -2.292969 2.964844 -3.417969 L 9.535156 -3.417969 C 9.675781 -6.414062 7.898438 -8.414062 5.089844 -8.414062 C 2.433594 -8.414062 0.609375 -6.648438 0.609375 -4.105469 C 0.609375 -1.546875 2.417969 0.21875 5.058594 0.21875 Z M 2.980469 -4.917969 C 3.246094 -5.914062 4.058594 -6.523438 5.105469 -6.523438 C 6.195312 -6.523438 6.976562 -5.914062 7.242188 -4.917969 Z M 2.980469 -4.917969 "/></g></g></g><g fill="#000000" fill-opacity="1"><g transform="translate(422.808602, 165.621788)"><g/></g></g><g fill="#000000" fill-opacity="1"><g transform="translate(426.474029, 165.621788)"><g><path d="M 4.777344 0.21875 C 5.789062 0.21875 6.679688 -0.09375 7.382812 -0.640625 L 7.382812 3.121094 L 9.753906 3.121094 L 9.753906 -8.195312 L 7.992188 -8.195312 L 7.726562 -7.257812 C 6.992188 -7.992188 5.960938 -8.414062 4.777344 -8.414062 C 2.339844 -8.414062 0.609375 -6.617188 0.609375 -4.105469 C 0.609375 -1.5625 2.339844 0.21875 4.777344 0.21875 Z M 2.949219 -4.105469 C 2.949219 -5.429688 3.871094 -6.382812 5.214844 -6.382812 C 6.539062 -6.382812 7.460938 -5.429688 7.460938 -4.105469 C 7.460938 -2.761719 6.539062 -1.824219 5.214844 -1.824219 C 3.871094 -1.824219 2.949219 -2.761719 2.949219 -4.105469 Z M 2.949219 -4.105469 "/></g></g></g><g fill="#000000" fill-opacity="1"><g transform="translate(437.407931, 165.621788)"><g><path d="M 4.449219 0.21875 C 5.523438 0.21875 6.492188 -0.15625 7.148438 -0.921875 L 7.398438 0 L 9.160156 0 L 9.160156 -8.195312 L 6.789062 -8.195312 L 6.789062 -3.917969 C 6.789062 -2.621094 6.085938 -1.824219 5.011719 -1.824219 C 4.011719 -1.824219 3.402344 -2.527344 3.402344 -3.730469 L 3.402344 -8.195312 L 1.03125 -8.195312 L 1.03125 -3.496094 C 1.03125 -1.21875 2.324219 0.21875 4.449219 0.21875 Z M 4.449219 0.21875 "/></g></g></g><g fill="#000000" fill-opacity="1"><g transform="translate(447.749131, 165.621788)"><g><path d="M 3.917969 0.15625 C 5.136719 0.15625 6.132812 -0.234375 6.835938 -0.953125 L 7.101562 0 L 8.863281 0 L 8.863281 -4.933594 C 8.863281 -7.101562 7.398438 -8.414062 4.949219 -8.414062 C 2.855469 -8.414062 1.484375 -7.414062 1.1875 -5.632812 L 3.464844 -5.632812 C 3.605469 -6.210938 4.199219 -6.601562 4.964844 -6.601562 C 5.898438 -6.601562 6.539062 -6.070312 6.539062 -5.257812 L 6.539062 -4.886719 L 3.574219 -4.886719 C 1.871094 -4.886719 0.78125 -3.902344 0.78125 -2.386719 C 0.78125 -0.8125 1.980469 0.15625 3.917969 0.15625 Z M 3.121094 -2.480469 C 3.121094 -3.042969 3.589844 -3.402344 4.308594 -3.402344 L 6.554688 -3.402344 C 6.507812 -2.292969 5.648438 -1.546875 4.464844 -1.546875 C 3.652344 -1.546875 3.121094 -1.917969 3.121094 -2.480469 Z M 3.121094 -2.480469 "/></g></g></g><g fill="#000000" fill-opacity="1"><g transform="translate(457.637993, 165.621788)"><g><path d="M 1.1875 0 L 3.558594 0 L 3.558594 -11.550781 L 1.1875 -11.550781 Z M 1.1875 0 "/></g></g></g><g fill="#000000" fill-opacity="1"><g transform="translate(462.379657, 165.621788)"><g><path d="M 1.1875 0 L 3.558594 0 L 3.558594 -8.195312 L 1.1875 -8.195312 Z M 0.84375 -10.847656 C 0.84375 -9.972656 1.46875 -9.363281 2.371094 -9.363281 C 3.277344 -9.363281 3.902344 -9.972656 3.902344 -10.847656 C 3.902344 -11.722656 3.277344 -12.328125 2.371094 -12.328125 C 1.46875 -12.328125 0.84375 -11.722656 0.84375 -10.847656 Z M 0.84375 -10.847656 "/></g></g></g><g fill="#000000" fill-opacity="1"><g transform="translate(467.121321, 165.621788)"><g><path d="M 5.136719 0 L 6.632812 0 L 6.632812 -2.058594 L 5.648438 -2.058594 C 4.714844 -2.058594 4.277344 -2.511719 4.277344 -3.464844 L 4.277344 -6.257812 L 6.523438 -6.257812 L 6.523438 -8.195312 L 4.277344 -8.195312 L 4.277344 -10.316406 L 2.433594 -10.316406 L 2.292969 -9.253906 C 2.167969 -8.414062 1.933594 -8.195312 1.046875 -8.195312 L 0.3125 -8.195312 L 0.3125 -6.257812 L 1.902344 -6.257812 L 1.902344 -3.105469 C 1.902344 -1.109375 3.058594 0 5.136719 0 Z M 5.136719 0 "/></g></g></g><g fill="#000000" fill-opacity="1"><g transform="translate(474.405393, 165.621788)"><g><path d="M 1.21875 3.121094 L 2.324219 3.121094 C 4.230469 3.121094 5.027344 2.652344 5.695312 0.96875 L 9.347656 -8.195312 L 6.804688 -8.195312 L 5.710938 -5.214844 L 4.964844 -3.121094 L 2.761719 -8.195312 L 0.140625 -8.195312 L 3.824219 -0.265625 L 3.730469 0.015625 C 3.449219 0.828125 3.121094 1.078125 2.152344 1.078125 L 1.21875 1.078125 Z M 1.21875 3.121094 "/></g></g></g><g fill="#000000" fill-opacity="1"><g transform="translate(483.873124, 165.621788)"><g/></g></g><g fill="#000000" fill-opacity="1"><g transform="translate(487.538552, 165.621788)"><g><path d="M 3.917969 0.15625 C 5.136719 0.15625 6.132812 -0.234375 6.835938 -0.953125 L 7.101562 0 L 8.863281 0 L 8.863281 -4.933594 C 8.863281 -7.101562 7.398438 -8.414062 4.949219 -8.414062 C 2.855469 -8.414062 1.484375 -7.414062 1.1875 -5.632812 L 3.464844 -5.632812 C 3.605469 -6.210938 4.199219 -6.601562 4.964844 -6.601562 C 5.898438 -6.601562 6.539062 -6.070312 6.539062 -5.257812 L 6.539062 -4.886719 L 3.574219 -4.886719 C 1.871094 -4.886719 0.78125 -3.902344 0.78125 -2.386719 C 0.78125 -0.8125 1.980469 0.15625 3.917969 0.15625 Z M 3.121094 -2.480469 C 3.121094 -3.042969 3.589844 -3.402344 4.308594 -3.402344 L 6.554688 -3.402344 C 6.507812 -2.292969 5.648438 -1.546875 4.464844 -1.546875 C 3.652344 -1.546875 3.121094 -1.917969 3.121094 -2.480469 Z M 3.121094 -2.480469 "/></g></g></g><g fill="#000000" fill-opacity="1"><g transform="translate(497.427413, 165.621788)"><g><path d="M 6.148438 0.21875 C 8.601562 0.21875 10.332031 -1.5625 10.332031 -4.105469 C 10.332031 -6.617188 8.601562 -8.414062 6.148438 -8.414062 C 4.964844 -8.414062 3.949219 -7.992188 3.214844 -7.257812 L 2.949219 -8.195312 L 1.1875 -8.195312 L 1.1875 3.121094 L 3.558594 3.121094 L 3.558594 -0.640625 C 4.246094 -0.09375 5.136719 0.21875 6.148438 0.21875 Z M 3.464844 -4.105469 C 3.464844 -5.429688 4.402344 -6.382812 5.726562 -6.382812 C 7.070312 -6.382812 7.992188 -5.429688 7.992188 -4.105469 C 7.992188 -2.761719 7.070312 -1.824219 5.726562 -1.824219 C 4.402344 -1.824219 3.464844 -2.761719 3.464844 -4.105469 Z M 3.464844 -4.105469 "/></g></g></g><g fill="#000000" fill-opacity="1"><g transform="translate(508.361314, 165.621788)"><g><path d="M 6.148438 0.21875 C 8.601562 0.21875 10.332031 -1.5625 10.332031 -4.105469 C 10.332031 -6.617188 8.601562 -8.414062 6.148438 -8.414062 C 4.964844 -8.414062 3.949219 -7.992188 3.214844 -7.257812 L 2.949219 -8.195312 L 1.1875 -8.195312 L 1.1875 3.121094 L 3.558594 3.121094 L 3.558594 -0.640625 C 4.246094 -0.09375 5.136719 0.21875 6.148438 0.21875 Z M 3.464844 -4.105469 C 3.464844 -5.429688 4.402344 -6.382812 5.726562 -6.382812 C 7.070312 -6.382812 7.992188 -5.429688 7.992188 -4.105469 C 7.992188 -2.761719 7.070312 -1.824219 5.726562 -1.824219 C 4.402344 -1.824219 3.464844 -2.761719 3.464844 -4.105469 Z M 3.464844 -4.105469 "/></g></g></g><g fill="#000000" fill-opacity="1"><g transform="translate(519.295216, 165.621788)"><g><path d="M 3.917969 0.15625 C 5.136719 0.15625 6.132812 -0.234375 6.835938 -0.953125 L 7.101562 0 L 8.863281 0 L 8.863281 -4.933594 C 8.863281 -7.101562 7.398438 -8.414062 4.949219 -8.414062 C 2.855469 -8.414062 1.484375 -7.414062 1.1875 -5.632812 L 3.464844 -5.632812 C 3.605469 -6.210938 4.199219 -6.601562 4.964844 -6.601562 C 5.898438 -6.601562 6.539062 -6.070312 6.539062 -5.257812 L 6.539062 -4.886719 L 3.574219 -4.886719 C 1.871094 -4.886719 0.78125 -3.902344 0.78125 -2.386719 C 0.78125 -0.8125 1.980469 0.15625 3.917969 0.15625 Z M 3.121094 -2.480469 C 3.121094 -3.042969 3.589844 -3.402344 4.308594 -3.402344 L 6.554688 -3.402344 C 6.507812 -2.292969 5.648438 -1.546875 4.464844 -1.546875 C 3.652344 -1.546875 3.121094 -1.917969 3.121094 -2.480469 Z M 3.121094 -2.480469 "/></g></g></g><g fill="#000000" fill-opacity="1"><g transform="translate(529.184077, 165.621788)"><g><path d="M 1.1875 0 L 3.558594 0 L 3.558594 -3.621094 C 3.558594 -5.382812 4.386719 -6.039062 5.742188 -6.039062 L 6.648438 -6.039062 L 6.648438 -8.195312 L 5.757812 -8.195312 C 4.558594 -8.195312 3.792969 -7.867188 3.261719 -7.101562 L 2.949219 -8.195312 L 1.1875 -8.195312 Z M 1.1875 0 "/></g></g></g><g fill="#000000" fill-opacity="1"><g transform="translate(536.358961, 165.621788)"><g><path d="M 5.058594 0.21875 C 7.070312 0.21875 8.664062 -0.8125 9.378906 -2.542969 L 6.976562 -2.542969 C 6.585938 -1.996094 5.882812 -1.6875 5.105469 -1.6875 C 4.027344 -1.6875 3.183594 -2.292969 2.964844 -3.417969 L 9.535156 -3.417969 C 9.675781 -6.414062 7.898438 -8.414062 5.089844 -8.414062 C 2.433594 -8.414062 0.609375 -6.648438 0.609375 -4.105469 C 0.609375 -1.546875 2.417969 0.21875 5.058594 0.21875 Z M 2.980469 -4.917969 C 3.246094 -5.914062 4.058594 -6.523438 5.105469 -6.523438 C 6.195312 -6.523438 6.976562 -5.914062 7.242188 -4.917969 Z M 2.980469 -4.917969 "/></g></g></g><g fill="#000000" fill-opacity="1"><g transform="translate(546.481786, 165.621788)"><g><path d="M 1.1875 0 L 3.558594 0 L 3.558594 -11.550781 L 1.1875 -11.550781 Z M 1.1875 0 "/></g></g></g><g fill="#000000" fill-opacity="1"><g transform="translate(551.22345, 165.621788)"><g/></g></g><g fill="#000000" fill-opacity="1"><g transform="translate(554.888878, 165.621788)"><g><path d="M 3.917969 0.15625 C 5.136719 0.15625 6.132812 -0.234375 6.835938 -0.953125 L 7.101562 0 L 8.863281 0 L 8.863281 -4.933594 C 8.863281 -7.101562 7.398438 -8.414062 4.949219 -8.414062 C 2.855469 -8.414062 1.484375 -7.414062 1.1875 -5.632812 L 3.464844 -5.632812 C 3.605469 -6.210938 4.199219 -6.601562 4.964844 -6.601562 C 5.898438 -6.601562 6.539062 -6.070312 6.539062 -5.257812 L 6.539062 -4.886719 L 3.574219 -4.886719 C 1.871094 -4.886719 0.78125 -3.902344 0.78125 -2.386719 C 0.78125 -0.8125 1.980469 0.15625 3.917969 0.15625 Z M 3.121094 -2.480469 C 3.121094 -3.042969 3.589844 -3.402344 4.308594 -3.402344 L 6.554688 -3.402344 C 6.507812 -2.292969 5.648438 -1.546875 4.464844 -1.546875 C 3.652344 -1.546875 3.121094 -1.917969 3.121094 -2.480469 Z M 3.121094 -2.480469 "/></g></g></g><g fill="#000000" fill-opacity="1"><g transform="translate(564.777739, 165.621788)"><g><path d="M 5.136719 0 L 6.632812 0 L 6.632812 -2.058594 L 5.648438 -2.058594 C 4.714844 -2.058594 4.277344 -2.511719 4.277344 -3.464844 L 4.277344 -6.257812 L 6.523438 -6.257812 L 6.523438 -8.195312 L 4.277344 -8.195312 L 4.277344 -10.316406 L 2.433594 -10.316406 L 2.292969 -9.253906 C 2.167969 -8.414062 1.933594 -8.195312 1.046875 -8.195312 L 0.3125 -8.195312 L 0.3125 -6.257812 L 1.902344 -6.257812 L 1.902344 -3.105469 C 1.902344 -1.109375 3.058594 0 5.136719 0 Z M 5.136719 0 "/></g></g></g><g fill="#000000" fill-opacity="1"><g transform="translate(359.030113, 188.871785)"><g><path d="M 5.136719 0 L 6.632812 0 L 6.632812 -2.058594 L 5.648438 -2.058594 C 4.714844 -2.058594 4.277344 -2.511719 4.277344 -3.464844 L 4.277344 -6.257812 L 6.523438 -6.257812 L 6.523438 -8.195312 L 4.277344 -8.195312 L 4.277344 -10.316406 L 2.433594 -10.316406 L 2.292969 -9.253906 C 2.167969 -8.414062 1.933594 -8.195312 1.046875 -8.195312 L 0.3125 -8.195312 L 0.3125 -6.257812 L 1.902344 -6.257812 L 1.902344 -3.105469 C 1.902344 -1.109375 3.058594 0 5.136719 0 Z M 5.136719 0 "/></g></g></g><g fill="#000000" fill-opacity="1"><g transform="translate(366.314185, 188.871785)"><g><path d="M 1.1875 0 L 3.558594 0 L 3.558594 -4.308594 C 3.558594 -5.601562 4.277344 -6.382812 5.367188 -6.382812 C 6.382812 -6.382812 6.992188 -5.695312 6.992188 -4.496094 L 6.992188 0 L 9.363281 0 L 9.363281 -4.730469 C 9.363281 -7.007812 8.085938 -8.414062 5.960938 -8.414062 C 5.042969 -8.414062 4.183594 -8.132812 3.558594 -7.570312 L 3.558594 -11.550781 L 1.1875 -11.550781 Z M 1.1875 0 "/></g></g></g><g fill="#000000" fill-opacity="1"><g transform="translate(376.702169, 188.871785)"><g><path d="M 5.058594 0.21875 C 7.070312 0.21875 8.664062 -0.8125 9.378906 -2.542969 L 6.976562 -2.542969 C 6.585938 -1.996094 5.882812 -1.6875 5.105469 -1.6875 C 4.027344 -1.6875 3.183594 -2.292969 2.964844 -3.417969 L 9.535156 -3.417969 C 9.675781 -6.414062 7.898438 -8.414062 5.089844 -8.414062 C 2.433594 -8.414062 0.609375 -6.648438 0.609375 -4.105469 C 0.609375 -1.546875 2.417969 0.21875 5.058594 0.21875 Z M 2.980469 -4.917969 C 3.246094 -5.914062 4.058594 -6.523438 5.105469 -6.523438 C 6.195312 -6.523438 6.976562 -5.914062 7.242188 -4.917969 Z M 2.980469 -4.917969 "/></g></g></g><g fill="#000000" fill-opacity="1"><g transform="translate(386.824994, 188.871785)"><g/></g></g><g fill="#000000" fill-opacity="1"><g transform="translate(390.490422, 188.871785)"><g><path d="M 1.1875 0 L 3.558594 0 L 3.558594 -4.433594 C 3.558594 -5.617188 4.214844 -6.382812 5.226562 -6.382812 C 6.210938 -6.382812 6.820312 -5.648438 6.820312 -4.496094 L 6.820312 0 L 9.160156 0 L 9.160156 -4.433594 C 9.160156 -5.617188 9.816406 -6.382812 10.832031 -6.382812 C 11.816406 -6.382812 12.421875 -5.648438 12.421875 -4.496094 L 12.421875 0 L 14.796875 0 L 14.796875 -4.777344 C 14.796875 -7.023438 13.453125 -8.414062 11.363281 -8.414062 C 10.113281 -8.414062 9.082031 -7.929688 8.414062 -7.070312 C 7.835938 -7.945312 6.882812 -8.414062 5.710938 -8.414062 C 4.667969 -8.414062 3.777344 -8.054688 3.183594 -7.351562 L 2.949219 -8.195312 L 1.1875 -8.195312 Z M 1.1875 0 "/></g></g></g><g fill="#000000" fill-opacity="1"><g transform="translate(406.306372, 188.871785)"><g><path d="M 5.214844 0.21875 C 7.929688 0.21875 9.800781 -1.546875 9.800781 -4.105469 C 9.800781 -6.648438 7.929688 -8.414062 5.214844 -8.414062 C 2.480469 -8.414062 0.609375 -6.648438 0.609375 -4.105469 C 0.609375 -1.546875 2.480469 0.21875 5.214844 0.21875 Z M 2.949219 -4.105469 C 2.949219 -5.445312 3.886719 -6.382812 5.214844 -6.382812 C 6.539062 -6.382812 7.460938 -5.445312 7.460938 -4.105469 C 7.460938 -2.761719 6.539062 -1.824219 5.214844 -1.824219 C 3.886719 -1.824219 2.949219 -2.761719 2.949219 -4.105469 Z M 2.949219 -4.105469 "/></g></g></g><g fill="#000000" fill-opacity="1"><g transform="translate(416.709954, 188.871785)"><g><path d="M 4.339844 0.21875 C 6.554688 0.21875 7.898438 -0.75 7.898438 -2.308594 C 7.898438 -3.652344 6.898438 -4.511719 4.871094 -4.917969 C 3.464844 -5.199219 3.027344 -5.429688 3.027344 -5.929688 C 3.027344 -6.414062 3.464844 -6.695312 4.167969 -6.695312 C 4.964844 -6.695312 5.445312 -6.335938 5.492188 -5.710938 L 7.757812 -5.710938 C 7.648438 -7.445312 6.367188 -8.414062 4.183594 -8.414062 C 1.980469 -8.414062 0.734375 -7.523438 0.734375 -5.929688 C 0.734375 -4.574219 1.671875 -3.761719 3.761719 -3.386719 C 5.027344 -3.167969 5.554688 -2.839844 5.554688 -2.324219 C 5.554688 -1.839844 5.121094 -1.546875 4.371094 -1.546875 C 3.496094 -1.546875 2.964844 -1.964844 2.949219 -2.636719 L 0.625 -2.636719 C 0.625 -0.921875 2.089844 0.21875 4.339844 0.21875 Z M 4.339844 0.21875 "/></g></g></g><g fill="#000000" fill-opacity="1"><g transform="translate(425.241832, 188.871785)"><g><path d="M 5.136719 0 L 6.632812 0 L 6.632812 -2.058594 L 5.648438 -2.058594 C 4.714844 -2.058594 4.277344 -2.511719 4.277344 -3.464844 L 4.277344 -6.257812 L 6.523438 -6.257812 L 6.523438 -8.195312 L 4.277344 -8.195312 L 4.277344 -10.316406 L 2.433594 -10.316406 L 2.292969 -9.253906 C 2.167969 -8.414062 1.933594 -8.195312 1.046875 -8.195312 L 0.3125 -8.195312 L 0.3125 -6.257812 L 1.902344 -6.257812 L 1.902344 -3.105469 C 1.902344 -1.109375 3.058594 0 5.136719 0 Z M 5.136719 0 "/></g></g></g><g fill="#000000" fill-opacity="1"><g transform="translate(432.525904, 188.871785)"><g/></g></g><g fill="#000000" fill-opacity="1"><g transform="translate(436.191332, 188.871785)"><g><path d="M 5.089844 0.21875 C 7.398438 0.21875 9.128906 -1.140625 9.566406 -3.292969 L 7.257812 -3.292969 C 6.929688 -2.402344 6.117188 -1.824219 5.121094 -1.824219 C 3.839844 -1.824219 2.949219 -2.761719 2.949219 -4.105469 C 2.949219 -5.445312 3.839844 -6.382812 5.121094 -6.382812 C 6.054688 -6.382812 6.820312 -5.882812 7.210938 -5.058594 L 9.488281 -5.058594 C 9.113281 -7.085938 7.367188 -8.414062 5.089844 -8.414062 C 2.464844 -8.414062 0.609375 -6.617188 0.609375 -4.105469 C 0.609375 -1.578125 2.449219 0.21875 5.089844 0.21875 Z M 5.089844 0.21875 "/></g></g></g><g fill="#000000" fill-opacity="1"><g transform="translate(446.329755, 188.871785)"><g><path d="M 5.214844 0.21875 C 7.929688 0.21875 9.800781 -1.546875 9.800781 -4.105469 C 9.800781 -6.648438 7.929688 -8.414062 5.214844 -8.414062 C 2.480469 -8.414062 0.609375 -6.648438 0.609375 -4.105469 C 0.609375 -1.546875 2.480469 0.21875 5.214844 0.21875 Z M 2.949219 -4.105469 C 2.949219 -5.445312 3.886719 -6.382812 5.214844 -6.382812 C 6.539062 -6.382812 7.460938 -5.445312 7.460938 -4.105469 C 7.460938 -2.761719 6.539062 -1.824219 5.214844 -1.824219 C 3.886719 -1.824219 2.949219 -2.761719 2.949219 -4.105469 Z M 2.949219 -4.105469 "/></g></g></g><g fill="#000000" fill-opacity="1"><g transform="translate(456.733337, 188.871785)"><g><path d="M 1.1875 0 L 3.558594 0 L 3.558594 -4.433594 C 3.558594 -5.617188 4.214844 -6.382812 5.226562 -6.382812 C 6.210938 -6.382812 6.820312 -5.648438 6.820312 -4.496094 L 6.820312 0 L 9.160156 0 L 9.160156 -4.433594 C 9.160156 -5.617188 9.816406 -6.382812 10.832031 -6.382812 C 11.816406 -6.382812 12.421875 -5.648438 12.421875 -4.496094 L 12.421875 0 L 14.796875 0 L 14.796875 -4.777344 C 14.796875 -7.023438 13.453125 -8.414062 11.363281 -8.414062 C 10.113281 -8.414062 9.082031 -7.929688 8.414062 -7.070312 C 7.835938 -7.945312 6.882812 -8.414062 5.710938 -8.414062 C 4.667969 -8.414062 3.777344 -8.054688 3.183594 -7.351562 L 2.949219 -8.195312 L 1.1875 -8.195312 Z M 1.1875 0 "/></g></g></g><g fill="#000000" fill-opacity="1"><g transform="translate(472.549287, 188.871785)"><g><path d="M 6.148438 0.21875 C 8.601562 0.21875 10.332031 -1.5625 10.332031 -4.105469 C 10.332031 -6.617188 8.601562 -8.414062 6.148438 -8.414062 C 4.964844 -8.414062 3.949219 -7.992188 3.214844 -7.257812 L 2.949219 -8.195312 L 1.1875 -8.195312 L 1.1875 3.121094 L 3.558594 3.121094 L 3.558594 -0.640625 C 4.246094 -0.09375 5.136719 0.21875 6.148438 0.21875 Z M 3.464844 -4.105469 C 3.464844 -5.429688 4.402344 -6.382812 5.726562 -6.382812 C 7.070312 -6.382812 7.992188 -5.429688 7.992188 -4.105469 C 7.992188 -2.761719 7.070312 -1.824219 5.726562 -1.824219 C 4.402344 -1.824219 3.464844 -2.761719 3.464844 -4.105469 Z M 3.464844 -4.105469 "/></g></g></g><g fill="#000000" fill-opacity="1"><g transform="translate(483.483189, 188.871785)"><g><path d="M 5.058594 0.21875 C 7.070312 0.21875 8.664062 -0.8125 9.378906 -2.542969 L 6.976562 -2.542969 C 6.585938 -1.996094 5.882812 -1.6875 5.105469 -1.6875 C 4.027344 -1.6875 3.183594 -2.292969 2.964844 -3.417969 L 9.535156 -3.417969 C 9.675781 -6.414062 7.898438 -8.414062 5.089844 -8.414062 C 2.433594 -8.414062 0.609375 -6.648438 0.609375 -4.105469 C 0.609375 -1.546875 2.417969 0.21875 5.058594 0.21875 Z M 2.980469 -4.917969 C 3.246094 -5.914062 4.058594 -6.523438 5.105469 -6.523438 C 6.195312 -6.523438 6.976562 -5.914062 7.242188 -4.917969 Z M 2.980469 -4.917969 "/></g></g></g><g fill="#000000" fill-opacity="1"><g transform="translate(493.606013, 188.871785)"><g><path d="M 5.136719 0 L 6.632812 0 L 6.632812 -2.058594 L 5.648438 -2.058594 C 4.714844 -2.058594 4.277344 -2.511719 4.277344 -3.464844 L 4.277344 -6.257812 L 6.523438 -6.257812 L 6.523438 -8.195312 L 4.277344 -8.195312 L 4.277344 -10.316406 L 2.433594 -10.316406 L 2.292969 -9.253906 C 2.167969 -8.414062 1.933594 -8.195312 1.046875 -8.195312 L 0.3125 -8.195312 L 0.3125 -6.257812 L 1.902344 -6.257812 L 1.902344 -3.105469 C 1.902344 -1.109375 3.058594 0 5.136719 0 Z M 5.136719 0 "/></g></g></g><g fill="#000000" fill-opacity="1"><g transform="translate(500.890085, 188.871785)"><g><path d="M 1.1875 0 L 3.558594 0 L 3.558594 -8.195312 L 1.1875 -8.195312 Z M 0.84375 -10.847656 C 0.84375 -9.972656 1.46875 -9.363281 2.371094 -9.363281 C 3.277344 -9.363281 3.902344 -9.972656 3.902344 -10.847656 C 3.902344 -11.722656 3.277344 -12.328125 2.371094 -12.328125 C 1.46875 -12.328125 0.84375 -11.722656 0.84375 -10.847656 Z M 0.84375 -10.847656 "/></g></g></g><g fill="#000000" fill-opacity="1"><g transform="translate(505.63175, 188.871785)"><g><path d="M 5.136719 0 L 6.632812 0 L 6.632812 -2.058594 L 5.648438 -2.058594 C 4.714844 -2.058594 4.277344 -2.511719 4.277344 -3.464844 L 4.277344 -6.257812 L 6.523438 -6.257812 L 6.523438 -8.195312 L 4.277344 -8.195312 L 4.277344 -10.316406 L 2.433594 -10.316406 L 2.292969 -9.253906 C 2.167969 -8.414062 1.933594 -8.195312 1.046875 -8.195312 L 0.3125 -8.195312 L 0.3125 -6.257812 L 1.902344 -6.257812 L 1.902344 -3.105469 C 1.902344 -1.109375 3.058594 0 5.136719 0 Z M 5.136719 0 "/></g></g></g><g fill="#000000" fill-opacity="1"><g transform="translate(512.915822, 188.871785)"><g><path d="M 1.1875 0 L 3.558594 0 L 3.558594 -8.195312 L 1.1875 -8.195312 Z M 0.84375 -10.847656 C 0.84375 -9.972656 1.46875 -9.363281 2.371094 -9.363281 C 3.277344 -9.363281 3.902344 -9.972656 3.902344 -10.847656 C 3.902344 -11.722656 3.277344 -12.328125 2.371094 -12.328125 C 1.46875 -12.328125 0.84375 -11.722656 0.84375 -10.847656 Z M 0.84375 -10.847656 "/></g></g></g><g fill="#000000" fill-opacity="1"><g transform="translate(517.657486, 188.871785)"><g><path d="M 3.542969 0 L 5.914062 0 L 9.332031 -8.195312 L 6.757812 -8.195312 L 5.820312 -5.617188 L 4.746094 -2.839844 L 3.652344 -5.617188 L 2.730469 -8.195312 L 0.140625 -8.195312 Z M 3.542969 0 "/></g></g></g><g fill="#000000" fill-opacity="1"><g transform="translate(527.125216, 188.871785)"><g><path d="M 5.058594 0.21875 C 7.070312 0.21875 8.664062 -0.8125 9.378906 -2.542969 L 6.976562 -2.542969 C 6.585938 -1.996094 5.882812 -1.6875 5.105469 -1.6875 C 4.027344 -1.6875 3.183594 -2.292969 2.964844 -3.417969 L 9.535156 -3.417969 C 9.675781 -6.414062 7.898438 -8.414062 5.089844 -8.414062 C 2.433594 -8.414062 0.609375 -6.648438 0.609375 -4.105469 C 0.609375 -1.546875 2.417969 0.21875 5.058594 0.21875 Z M 2.980469 -4.917969 C 3.246094 -5.914062 4.058594 -6.523438 5.105469 -6.523438 C 6.195312 -6.523438 6.976562 -5.914062 7.242188 -4.917969 Z M 2.980469 -4.917969 "/></g></g></g><g fill="#000000" fill-opacity="1"><g transform="translate(359.030113, 212.121782)"><g><path d="M 6.148438 0.21875 C 8.601562 0.21875 10.332031 -1.5625 10.332031 -4.105469 C 10.332031 -6.617188 8.601562 -8.414062 6.148438 -8.414062 C 4.964844 -8.414062 3.949219 -7.992188 3.214844 -7.257812 L 2.949219 -8.195312 L 1.1875 -8.195312 L 1.1875 3.121094 L 3.558594 3.121094 L 3.558594 -0.640625 C 4.246094 -0.09375 5.136719 0.21875 6.148438 0.21875 Z M 3.464844 -4.105469 C 3.464844 -5.429688 4.402344 -6.382812 5.726562 -6.382812 C 7.070312 -6.382812 7.992188 -5.429688 7.992188 -4.105469 C 7.992188 -2.761719 7.070312 -1.824219 5.726562 -1.824219 C 4.402344 -1.824219 3.464844 -2.761719 3.464844 -4.105469 Z M 3.464844 -4.105469 "/></g></g></g><g fill="#000000" fill-opacity="1"><g transform="translate(369.964015, 212.121782)"><g><path d="M 1.1875 0 L 3.558594 0 L 3.558594 -3.621094 C 3.558594 -5.382812 4.386719 -6.039062 5.742188 -6.039062 L 6.648438 -6.039062 L 6.648438 -8.195312 L 5.757812 -8.195312 C 4.558594 -8.195312 3.792969 -7.867188 3.261719 -7.101562 L 2.949219 -8.195312 L 1.1875 -8.195312 Z M 1.1875 0 "/></g></g></g><g fill="#000000" fill-opacity="1"><g transform="translate(377.138899, 212.121782)"><g><path d="M 1.1875 0 L 3.558594 0 L 3.558594 -8.195312 L 1.1875 -8.195312 Z M 0.84375 -10.847656 C 0.84375 -9.972656 1.46875 -9.363281 2.371094 -9.363281 C 3.277344 -9.363281 3.902344 -9.972656 3.902344 -10.847656 C 3.902344 -11.722656 3.277344 -12.328125 2.371094 -12.328125 C 1.46875 -12.328125 0.84375 -11.722656 0.84375 -10.847656 Z M 0.84375 -10.847656 "/></g></g></g><g fill="#000000" fill-opacity="1"><g transform="translate(381.880563, 212.121782)"><g><path d="M 5.089844 0.21875 C 7.398438 0.21875 9.128906 -1.140625 9.566406 -3.292969 L 7.257812 -3.292969 C 6.929688 -2.402344 6.117188 -1.824219 5.121094 -1.824219 C 3.839844 -1.824219 2.949219 -2.761719 2.949219 -4.105469 C 2.949219 -5.445312 3.839844 -6.382812 5.121094 -6.382812 C 6.054688 -6.382812 6.820312 -5.882812 7.210938 -5.058594 L 9.488281 -5.058594 C 9.113281 -7.085938 7.367188 -8.414062 5.089844 -8.414062 C 2.464844 -8.414062 0.609375 -6.617188 0.609375 -4.105469 C 0.609375 -1.578125 2.449219 0.21875 5.089844 0.21875 Z M 5.089844 0.21875 "/></g></g></g><g fill="#000000" fill-opacity="1"><g transform="translate(392.018986, 212.121782)"><g><path d="M 5.058594 0.21875 C 7.070312 0.21875 8.664062 -0.8125 9.378906 -2.542969 L 6.976562 -2.542969 C 6.585938 -1.996094 5.882812 -1.6875 5.105469 -1.6875 C 4.027344 -1.6875 3.183594 -2.292969 2.964844 -3.417969 L 9.535156 -3.417969 C 9.675781 -6.414062 7.898438 -8.414062 5.089844 -8.414062 C 2.433594 -8.414062 0.609375 -6.648438 0.609375 -4.105469 C 0.609375 -1.546875 2.417969 0.21875 5.058594 0.21875 Z M 2.980469 -4.917969 C 3.246094 -5.914062 4.058594 -6.523438 5.105469 -6.523438 C 6.195312 -6.523438 6.976562 -5.914062 7.242188 -4.917969 Z M 2.980469 -4.917969 "/></g></g></g><g fill="#000000" fill-opacity="1"><g transform="translate(402.14181, 212.121782)"><g><path d="M 4.339844 0.21875 C 6.554688 0.21875 7.898438 -0.75 7.898438 -2.308594 C 7.898438 -3.652344 6.898438 -4.511719 4.871094 -4.917969 C 3.464844 -5.199219 3.027344 -5.429688 3.027344 -5.929688 C 3.027344 -6.414062 3.464844 -6.695312 4.167969 -6.695312 C 4.964844 -6.695312 5.445312 -6.335938 5.492188 -5.710938 L 7.757812 -5.710938 C 7.648438 -7.445312 6.367188 -8.414062 4.183594 -8.414062 C 1.980469 -8.414062 0.734375 -7.523438 0.734375 -5.929688 C 0.734375 -4.574219 1.671875 -3.761719 3.761719 -3.386719 C 5.027344 -3.167969 5.554688 -2.839844 5.554688 -2.324219 C 5.554688 -1.839844 5.121094 -1.546875 4.371094 -1.546875 C 3.496094 -1.546875 2.964844 -1.964844 2.949219 -2.636719 L 0.625 -2.636719 C 0.625 -0.921875 2.089844 0.21875 4.339844 0.21875 Z M 4.339844 0.21875 "/></g></g></g><g fill="#000000" fill-opacity="1"><g transform="translate(410.673689, 212.121782)"><g/></g></g><g fill="#000000" fill-opacity="1"><g transform="translate(414.339116, 212.121782)"><g><path d="M 1.1875 0 L 3.558594 0 L 3.558594 -8.195312 L 1.1875 -8.195312 Z M 0.84375 -10.847656 C 0.84375 -9.972656 1.46875 -9.363281 2.371094 -9.363281 C 3.277344 -9.363281 3.902344 -9.972656 3.902344 -10.847656 C 3.902344 -11.722656 3.277344 -12.328125 2.371094 -12.328125 C 1.46875 -12.328125 0.84375 -11.722656 0.84375 -10.847656 Z M 0.84375 -10.847656 "/></g></g></g><g fill="#000000" fill-opacity="1"><g transform="translate(419.080781, 212.121782)"><g><path d="M 1.1875 0 L 3.558594 0 L 3.558594 -4.292969 C 3.558594 -5.585938 4.277344 -6.382812 5.367188 -6.382812 C 6.382812 -6.382812 6.992188 -5.664062 6.992188 -4.464844 L 6.992188 0 L 9.363281 0 L 9.363281 -4.714844 C 9.363281 -6.976562 8.070312 -8.414062 5.929688 -8.414062 C 4.839844 -8.414062 3.855469 -8.039062 3.199219 -7.273438 L 2.949219 -8.195312 L 1.1875 -8.195312 Z M 1.1875 0 "/></g></g></g><g fill="#000000" fill-opacity="1"><g transform="translate(429.468765, 212.121782)"><g/></g></g><g fill="#000000" fill-opacity="1"><g transform="translate(433.134192, 212.121782)"><g><path d="M 5.136719 0 L 6.632812 0 L 6.632812 -2.058594 L 5.648438 -2.058594 C 4.714844 -2.058594 4.277344 -2.511719 4.277344 -3.464844 L 4.277344 -6.257812 L 6.523438 -6.257812 L 6.523438 -8.195312 L 4.277344 -8.195312 L 4.277344 -10.316406 L 2.433594 -10.316406 L 2.292969 -9.253906 C 2.167969 -8.414062 1.933594 -8.195312 1.046875 -8.195312 L 0.3125 -8.195312 L 0.3125 -6.257812 L 1.902344 -6.257812 L 1.902344 -3.105469 C 1.902344 -1.109375 3.058594 0 5.136719 0 Z M 5.136719 0 "/></g></g></g><g fill="#000000" fill-opacity="1"><g transform="translate(440.418264, 212.121782)"><g><path d="M 1.1875 0 L 3.558594 0 L 3.558594 -4.308594 C 3.558594 -5.601562 4.277344 -6.382812 5.367188 -6.382812 C 6.382812 -6.382812 6.992188 -5.695312 6.992188 -4.496094 L 6.992188 0 L 9.363281 0 L 9.363281 -4.730469 C 9.363281 -7.007812 8.085938 -8.414062 5.960938 -8.414062 C 5.042969 -8.414062 4.183594 -8.132812 3.558594 -7.570312 L 3.558594 -11.550781 L 1.1875 -11.550781 Z M 1.1875 0 "/></g></g></g><g fill="#000000" fill-opacity="1"><g transform="translate(450.806248, 212.121782)"><g><path d="M 5.058594 0.21875 C 7.070312 0.21875 8.664062 -0.8125 9.378906 -2.542969 L 6.976562 -2.542969 C 6.585938 -1.996094 5.882812 -1.6875 5.105469 -1.6875 C 4.027344 -1.6875 3.183594 -2.292969 2.964844 -3.417969 L 9.535156 -3.417969 C 9.675781 -6.414062 7.898438 -8.414062 5.089844 -8.414062 C 2.433594 -8.414062 0.609375 -6.648438 0.609375 -4.105469 C 0.609375 -1.546875 2.417969 0.21875 5.058594 0.21875 Z M 2.980469 -4.917969 C 3.246094 -5.914062 4.058594 -6.523438 5.105469 -6.523438 C 6.195312 -6.523438 6.976562 -5.914062 7.242188 -4.917969 Z M 2.980469 -4.917969 "/></g></g></g><g fill="#000000" fill-opacity="1"><g transform="translate(460.929073, 212.121782)"><g/></g></g><g fill="#000000" fill-opacity="1"><g transform="translate(464.594501, 212.121782)"><g><path d="M 1.3125 0 L 3.792969 0 L 3.792969 -10.925781 L 1.3125 -10.925781 Z M 1.3125 0 "/></g></g></g><g fill="#000000" fill-opacity="1"><g transform="translate(469.694914, 212.121782)"><g><path d="M 1.1875 0 L 3.558594 0 L 3.558594 -4.292969 C 3.558594 -5.585938 4.277344 -6.382812 5.367188 -6.382812 C 6.382812 -6.382812 6.992188 -5.664062 6.992188 -4.464844 L 6.992188 0 L 9.363281 0 L 9.363281 -4.714844 C 9.363281 -6.976562 8.070312 -8.414062 5.929688 -8.414062 C 4.839844 -8.414062 3.855469 -8.039062 3.199219 -7.273438 L 2.949219 -8.195312 L 1.1875 -8.195312 Z M 1.1875 0 "/></g></g></g><g fill="#000000" fill-opacity="1"><g transform="translate(480.082898, 212.121782)"><g><path d="M 4.777344 0.21875 C 5.960938 0.21875 6.976562 -0.203125 7.710938 -0.9375 L 7.992188 0 L 9.753906 0 L 9.753906 -11.550781 L 7.382812 -11.550781 L 7.382812 -7.554688 C 6.679688 -8.101562 5.789062 -8.414062 4.777344 -8.414062 C 2.339844 -8.414062 0.609375 -6.617188 0.609375 -4.105469 C 0.609375 -1.5625 2.339844 0.21875 4.777344 0.21875 Z M 2.949219 -4.105469 C 2.949219 -5.429688 3.871094 -6.382812 5.214844 -6.382812 C 6.539062 -6.382812 7.460938 -5.429688 7.460938 -4.105469 C 7.460938 -2.761719 6.539062 -1.824219 5.214844 -1.824219 C 3.871094 -1.824219 2.949219 -2.761719 2.949219 -4.105469 Z M 2.949219 -4.105469 "/></g></g></g><g fill="#000000" fill-opacity="1"><g transform="translate(491.0168, 212.121782)"><g><path d="M 1.1875 0 L 3.558594 0 L 3.558594 -8.195312 L 1.1875 -8.195312 Z M 0.84375 -10.847656 C 0.84375 -9.972656 1.46875 -9.363281 2.371094 -9.363281 C 3.277344 -9.363281 3.902344 -9.972656 3.902344 -10.847656 C 3.902344 -11.722656 3.277344 -12.328125 2.371094 -12.328125 C 1.46875 -12.328125 0.84375 -11.722656 0.84375 -10.847656 Z M 0.84375 -10.847656 "/></g></g></g><g fill="#000000" fill-opacity="1"><g transform="translate(495.758464, 212.121782)"><g><path d="M 3.917969 0.15625 C 5.136719 0.15625 6.132812 -0.234375 6.835938 -0.953125 L 7.101562 0 L 8.863281 0 L 8.863281 -4.933594 C 8.863281 -7.101562 7.398438 -8.414062 4.949219 -8.414062 C 2.855469 -8.414062 1.484375 -7.414062 1.1875 -5.632812 L 3.464844 -5.632812 C 3.605469 -6.210938 4.199219 -6.601562 4.964844 -6.601562 C 5.898438 -6.601562 6.539062 -6.070312 6.539062 -5.257812 L 6.539062 -4.886719 L 3.574219 -4.886719 C 1.871094 -4.886719 0.78125 -3.902344 0.78125 -2.386719 C 0.78125 -0.8125 1.980469 0.15625 3.917969 0.15625 Z M 3.121094 -2.480469 C 3.121094 -3.042969 3.589844 -3.402344 4.308594 -3.402344 L 6.554688 -3.402344 C 6.507812 -2.292969 5.648438 -1.546875 4.464844 -1.546875 C 3.652344 -1.546875 3.121094 -1.917969 3.121094 -2.480469 Z M 3.121094 -2.480469 "/></g></g></g><g fill="#000000" fill-opacity="1"><g transform="translate(505.647326, 212.121782)"><g><path d="M 1.1875 0 L 3.558594 0 L 3.558594 -4.292969 C 3.558594 -5.585938 4.277344 -6.382812 5.367188 -6.382812 C 6.382812 -6.382812 6.992188 -5.664062 6.992188 -4.464844 L 6.992188 0 L 9.363281 0 L 9.363281 -4.714844 C 9.363281 -6.976562 8.070312 -8.414062 5.929688 -8.414062 C 4.839844 -8.414062 3.855469 -8.039062 3.199219 -7.273438 L 2.949219 -8.195312 L 1.1875 -8.195312 Z M 1.1875 0 "/></g></g></g><g fill="#000000" fill-opacity="1"><g transform="translate(359.030113, 235.37178)"><g><path d="M 1.1875 0 L 3.558594 0 L 3.558594 -4.433594 C 3.558594 -5.617188 4.214844 -6.382812 5.226562 -6.382812 C 6.210938 -6.382812 6.820312 -5.648438 6.820312 -4.496094 L 6.820312 0 L 9.160156 0 L 9.160156 -4.433594 C 9.160156 -5.617188 9.816406 -6.382812 10.832031 -6.382812 C 11.816406 -6.382812 12.421875 -5.648438 12.421875 -4.496094 L 12.421875 0 L 14.796875 0 L 14.796875 -4.777344 C 14.796875 -7.023438 13.453125 -8.414062 11.363281 -8.414062 C 10.113281 -8.414062 9.082031 -7.929688 8.414062 -7.070312 C 7.835938 -7.945312 6.882812 -8.414062 5.710938 -8.414062 C 4.667969 -8.414062 3.777344 -8.054688 3.183594 -7.351562 L 2.949219 -8.195312 L 1.1875 -8.195312 Z M 1.1875 0 "/></g></g></g><g fill="#000000" fill-opacity="1"><g transform="translate(374.846063, 235.37178)"><g><path d="M 3.917969 0.15625 C 5.136719 0.15625 6.132812 -0.234375 6.835938 -0.953125 L 7.101562 0 L 8.863281 0 L 8.863281 -4.933594 C 8.863281 -7.101562 7.398438 -8.414062 4.949219 -8.414062 C 2.855469 -8.414062 1.484375 -7.414062 1.1875 -5.632812 L 3.464844 -5.632812 C 3.605469 -6.210938 4.199219 -6.601562 4.964844 -6.601562 C 5.898438 -6.601562 6.539062 -6.070312 6.539062 -5.257812 L 6.539062 -4.886719 L 3.574219 -4.886719 C 1.871094 -4.886719 0.78125 -3.902344 0.78125 -2.386719 C 0.78125 -0.8125 1.980469 0.15625 3.917969 0.15625 Z M 3.121094 -2.480469 C 3.121094 -3.042969 3.589844 -3.402344 4.308594 -3.402344 L 6.554688 -3.402344 C 6.507812 -2.292969 5.648438 -1.546875 4.464844 -1.546875 C 3.652344 -1.546875 3.121094 -1.917969 3.121094 -2.480469 Z M 3.121094 -2.480469 "/></g></g></g><g fill="#000000" fill-opacity="1"><g transform="translate(384.734925, 235.37178)"><g><path d="M 1.1875 0 L 3.558594 0 L 3.558594 -3.621094 C 3.558594 -5.382812 4.386719 -6.039062 5.742188 -6.039062 L 6.648438 -6.039062 L 6.648438 -8.195312 L 5.757812 -8.195312 C 4.558594 -8.195312 3.792969 -7.867188 3.261719 -7.101562 L 2.949219 -8.195312 L 1.1875 -8.195312 Z M 1.1875 0 "/></g></g></g><g fill="#000000" fill-opacity="1"><g transform="translate(391.909809, 235.37178)"><g><path d="M 1.1875 0 L 3.558594 0 L 3.558594 -3.121094 L 4.839844 -3.121094 L 6.648438 0 L 9.410156 0 L 7.054688 -3.917969 C 7.492188 -4.308594 7.835938 -4.855469 8.101562 -5.585938 L 9.050781 -8.195312 L 6.492188 -8.195312 L 5.914062 -6.414062 C 5.601562 -5.492188 5.167969 -5.242188 4.167969 -5.242188 L 3.558594 -5.242188 L 3.558594 -11.550781 L 1.1875 -11.550781 Z M 1.1875 0 "/></g></g></g><g fill="#000000" fill-opacity="1"><g transform="translate(401.72069, 235.37178)"><g><path d="M 5.058594 0.21875 C 7.070312 0.21875 8.664062 -0.8125 9.378906 -2.542969 L 6.976562 -2.542969 C 6.585938 -1.996094 5.882812 -1.6875 5.105469 -1.6875 C 4.027344 -1.6875 3.183594 -2.292969 2.964844 -3.417969 L 9.535156 -3.417969 C 9.675781 -6.414062 7.898438 -8.414062 5.089844 -8.414062 C 2.433594 -8.414062 0.609375 -6.648438 0.609375 -4.105469 C 0.609375 -1.546875 2.417969 0.21875 5.058594 0.21875 Z M 2.980469 -4.917969 C 3.246094 -5.914062 4.058594 -6.523438 5.105469 -6.523438 C 6.195312 -6.523438 6.976562 -5.914062 7.242188 -4.917969 Z M 2.980469 -4.917969 "/></g></g></g><g fill="#000000" fill-opacity="1"><g transform="translate(411.843515, 235.37178)"><g><path d="M 5.136719 0 L 6.632812 0 L 6.632812 -2.058594 L 5.648438 -2.058594 C 4.714844 -2.058594 4.277344 -2.511719 4.277344 -3.464844 L 4.277344 -6.257812 L 6.523438 -6.257812 L 6.523438 -8.195312 L 4.277344 -8.195312 L 4.277344 -10.316406 L 2.433594 -10.316406 L 2.292969 -9.253906 C 2.167969 -8.414062 1.933594 -8.195312 1.046875 -8.195312 L 0.3125 -8.195312 L 0.3125 -6.257812 L 1.902344 -6.257812 L 1.902344 -3.105469 C 1.902344 -1.109375 3.058594 0 5.136719 0 Z M 5.136719 0 "/></g></g></g><g fill="#000000" fill-opacity="1"><g transform="translate(419.127587, 235.37178)"><g><path d="M 2.089844 0.171875 C 2.933594 0.171875 3.542969 -0.421875 3.542969 -1.234375 C 3.542969 -2.042969 2.933594 -2.652344 2.089844 -2.652344 C 1.234375 -2.652344 0.640625 -2.042969 0.640625 -1.234375 C 0.640625 -0.421875 1.234375 0.171875 2.089844 0.171875 Z M 2.089844 0.171875 "/></g></g></g><g fill="#000000" fill-opacity="1"><g transform="translate(423.292137, 235.37178)"><g/></g></g><g fill="#000000" fill-opacity="1"><g transform="translate(426.957565, 235.37178)"><g><path d="M 3.933594 0 L 6.414062 0 L 6.414062 -8.601562 L 9.878906 -8.601562 L 9.878906 -10.925781 L 0.46875 -10.925781 L 0.46875 -8.601562 L 3.933594 -8.601562 Z M 3.933594 0 "/></g></g></g><g fill="#000000" fill-opacity="1"><g transform="translate(437.298765, 235.37178)"><g><path d="M 1.1875 0 L 3.558594 0 L 3.558594 -4.308594 C 3.558594 -5.601562 4.277344 -6.382812 5.367188 -6.382812 C 6.382812 -6.382812 6.992188 -5.695312 6.992188 -4.496094 L 6.992188 0 L 9.363281 0 L 9.363281 -4.730469 C 9.363281 -7.007812 8.085938 -8.414062 5.960938 -8.414062 C 5.042969 -8.414062 4.183594 -8.132812 3.558594 -7.570312 L 3.558594 -11.550781 L 1.1875 -11.550781 Z M 1.1875 0 "/></g></g></g><g fill="#000000" fill-opacity="1"><g transform="translate(447.686749, 235.37178)"><g><path d="M 3.917969 0.15625 C 5.136719 0.15625 6.132812 -0.234375 6.835938 -0.953125 L 7.101562 0 L 8.863281 0 L 8.863281 -4.933594 C 8.863281 -7.101562 7.398438 -8.414062 4.949219 -8.414062 C 2.855469 -8.414062 1.484375 -7.414062 1.1875 -5.632812 L 3.464844 -5.632812 C 3.605469 -6.210938 4.199219 -6.601562 4.964844 -6.601562 C 5.898438 -6.601562 6.539062 -6.070312 6.539062 -5.257812 L 6.539062 -4.886719 L 3.574219 -4.886719 C 1.871094 -4.886719 0.78125 -3.902344 0.78125 -2.386719 C 0.78125 -0.8125 1.980469 0.15625 3.917969 0.15625 Z M 3.121094 -2.480469 C 3.121094 -3.042969 3.589844 -3.402344 4.308594 -3.402344 L 6.554688 -3.402344 C 6.507812 -2.292969 5.648438 -1.546875 4.464844 -1.546875 C 3.652344 -1.546875 3.121094 -1.917969 3.121094 -2.480469 Z M 3.121094 -2.480469 "/></g></g></g><g fill="#000000" fill-opacity="1"><g transform="translate(457.575611, 235.37178)"><g><path d="M 5.136719 0 L 6.632812 0 L 6.632812 -2.058594 L 5.648438 -2.058594 C 4.714844 -2.058594 4.277344 -2.511719 4.277344 -3.464844 L 4.277344 -6.257812 L 6.523438 -6.257812 L 6.523438 -8.195312 L 4.277344 -8.195312 L 4.277344 -10.316406 L 2.433594 -10.316406 L 2.292969 -9.253906 C 2.167969 -8.414062 1.933594 -8.195312 1.046875 -8.195312 L 0.3125 -8.195312 L 0.3125 -6.257812 L 1.902344 -6.257812 L 1.902344 -3.105469 C 1.902344 -1.109375 3.058594 0 5.136719 0 Z M 5.136719 0 "/></g></g></g><g fill="#000000" fill-opacity="1"><g transform="translate(464.859683, 235.37178)"><g><path d="M 1.28125 -7.851562 L 1.28125 -6.710938 C 2.839844 -6.820312 3.714844 -8.257812 3.714844 -9.675781 C 3.714844 -10.785156 3.121094 -11.675781 2.058594 -11.675781 C 1.203125 -11.675781 0.640625 -11.082031 0.640625 -10.316406 C 0.640625 -9.550781 1.203125 -8.972656 2.011719 -8.972656 C 2.089844 -8.972656 2.167969 -8.972656 2.261719 -8.988281 C 2.230469 -8.382812 1.886719 -8.007812 1.28125 -7.851562 Z M 1.28125 -7.851562 "/></g></g></g><g fill="#000000" fill-opacity="1"><g transform="translate(469.211413, 235.37178)"><g><path d="M 4.339844 0.21875 C 6.554688 0.21875 7.898438 -0.75 7.898438 -2.308594 C 7.898438 -3.652344 6.898438 -4.511719 4.871094 -4.917969 C 3.464844 -5.199219 3.027344 -5.429688 3.027344 -5.929688 C 3.027344 -6.414062 3.464844 -6.695312 4.167969 -6.695312 C 4.964844 -6.695312 5.445312 -6.335938 5.492188 -5.710938 L 7.757812 -5.710938 C 7.648438 -7.445312 6.367188 -8.414062 4.183594 -8.414062 C 1.980469 -8.414062 0.734375 -7.523438 0.734375 -5.929688 C 0.734375 -4.574219 1.671875 -3.761719 3.761719 -3.386719 C 5.027344 -3.167969 5.554688 -2.839844 5.554688 -2.324219 C 5.554688 -1.839844 5.121094 -1.546875 4.371094 -1.546875 C 3.496094 -1.546875 2.964844 -1.964844 2.949219 -2.636719 L 0.625 -2.636719 C 0.625 -0.921875 2.089844 0.21875 4.339844 0.21875 Z M 4.339844 0.21875 "/></g></g></g><g fill="#000000" fill-opacity="1"><g transform="translate(477.743291, 235.37178)"><g/></g></g><g fill="#000000" fill-opacity="1"><g transform="translate(481.408719, 235.37178)"><g><path d="M 3.167969 0 L 5.367188 0 L 7.242188 -4.996094 L 9.097656 0 L 11.300781 0 L 14.328125 -8.195312 L 11.832031 -8.195312 L 10.863281 -5.476562 L 10.050781 -3.167969 L 9.207031 -5.476562 L 8.195312 -8.195312 L 6.273438 -8.195312 L 5.257812 -5.476562 L 4.417969 -3.183594 L 3.605469 -5.476562 L 2.652344 -8.195312 L 0.140625 -8.195312 Z M 3.167969 0 "/></g></g></g><g fill="#000000" fill-opacity="1"><g transform="translate(495.867675, 235.37178)"><g><path d="M 1.1875 0 L 3.558594 0 L 3.558594 -4.308594 C 3.558594 -5.601562 4.277344 -6.382812 5.367188 -6.382812 C 6.382812 -6.382812 6.992188 -5.695312 6.992188 -4.496094 L 6.992188 0 L 9.363281 0 L 9.363281 -4.730469 C 9.363281 -7.007812 8.085938 -8.414062 5.960938 -8.414062 C 5.042969 -8.414062 4.183594 -8.132812 3.558594 -7.570312 L 3.558594 -11.550781 L 1.1875 -11.550781 Z M 1.1875 0 "/></g></g></g><g fill="#000000" fill-opacity="1"><g transform="translate(506.255659, 235.37178)"><g><path d="M 1.21875 3.121094 L 2.324219 3.121094 C 4.230469 3.121094 5.027344 2.652344 5.695312 0.96875 L 9.347656 -8.195312 L 6.804688 -8.195312 L 5.710938 -5.214844 L 4.964844 -3.121094 L 2.761719 -8.195312 L 0.140625 -8.195312 L 3.824219 -0.265625 L 3.730469 0.015625 C 3.449219 0.828125 3.121094 1.078125 2.152344 1.078125 L 1.21875 1.078125 Z M 1.21875 3.121094 "/></g></g></g><g fill="#000000" fill-opacity="1"><g transform="translate(515.723389, 235.37178)"><g/></g></g><g fill="#000000" fill-opacity="1"><g transform="translate(519.388817, 235.37178)"><g><path d="M 3.167969 0 L 5.367188 0 L 7.242188 -4.996094 L 9.097656 0 L 11.300781 0 L 14.328125 -8.195312 L 11.832031 -8.195312 L 10.863281 -5.476562 L 10.050781 -3.167969 L 9.207031 -5.476562 L 8.195312 -8.195312 L 6.273438 -8.195312 L 5.257812 -5.476562 L 4.417969 -3.183594 L 3.605469 -5.476562 L 2.652344 -8.195312 L 0.140625 -8.195312 Z M 3.167969 0 "/></g></g></g><g fill="#000000" fill-opacity="1"><g transform="translate(533.847773, 235.37178)"><g><path d="M 5.058594 0.21875 C 7.070312 0.21875 8.664062 -0.8125 9.378906 -2.542969 L 6.976562 -2.542969 C 6.585938 -1.996094 5.882812 -1.6875 5.105469 -1.6875 C 4.027344 -1.6875 3.183594 -2.292969 2.964844 -3.417969 L 9.535156 -3.417969 C 9.675781 -6.414062 7.898438 -8.414062 5.089844 -8.414062 C 2.433594 -8.414062 0.609375 -6.648438 0.609375 -4.105469 C 0.609375 -1.546875 2.417969 0.21875 5.058594 0.21875 Z M 2.980469 -4.917969 C 3.246094 -5.914062 4.058594 -6.523438 5.105469 -6.523438 C 6.195312 -6.523438 6.976562 -5.914062 7.242188 -4.917969 Z M 2.980469 -4.917969 "/></g></g></g><g fill="#000000" fill-opacity="1"><g transform="translate(359.030113, 258.621777)"><g><path d="M 5.058594 0.21875 C 7.070312 0.21875 8.664062 -0.8125 9.378906 -2.542969 L 6.976562 -2.542969 C 6.585938 -1.996094 5.882812 -1.6875 5.105469 -1.6875 C 4.027344 -1.6875 3.183594 -2.292969 2.964844 -3.417969 L 9.535156 -3.417969 C 9.675781 -6.414062 7.898438 -8.414062 5.089844 -8.414062 C 2.433594 -8.414062 0.609375 -6.648438 0.609375 -4.105469 C 0.609375 -1.546875 2.417969 0.21875 5.058594 0.21875 Z M 2.980469 -4.917969 C 3.246094 -5.914062 4.058594 -6.523438 5.105469 -6.523438 C 6.195312 -6.523438 6.976562 -5.914062 7.242188 -4.917969 Z M 2.980469 -4.917969 "/></g></g></g><g fill="#000000" fill-opacity="1"><g transform="translate(369.152938, 258.621777)"><g><path d="M 4.777344 0.21875 C 5.960938 0.21875 6.976562 -0.203125 7.710938 -0.9375 L 7.992188 0 L 9.753906 0 L 9.753906 -11.550781 L 7.382812 -11.550781 L 7.382812 -7.554688 C 6.679688 -8.101562 5.789062 -8.414062 4.777344 -8.414062 C 2.339844 -8.414062 0.609375 -6.617188 0.609375 -4.105469 C 0.609375 -1.5625 2.339844 0.21875 4.777344 0.21875 Z M 2.949219 -4.105469 C 2.949219 -5.429688 3.871094 -6.382812 5.214844 -6.382812 C 6.539062 -6.382812 7.460938 -5.429688 7.460938 -4.105469 C 7.460938 -2.761719 6.539062 -1.824219 5.214844 -1.824219 C 3.871094 -1.824219 2.949219 -2.761719 2.949219 -4.105469 Z M 2.949219 -4.105469 "/></g></g></g><g fill="#000000" fill-opacity="1"><g transform="translate(380.086839, 258.621777)"><g><path d="M 4.449219 0.21875 C 5.523438 0.21875 6.492188 -0.15625 7.148438 -0.921875 L 7.398438 0 L 9.160156 0 L 9.160156 -8.195312 L 6.789062 -8.195312 L 6.789062 -3.917969 C 6.789062 -2.621094 6.085938 -1.824219 5.011719 -1.824219 C 4.011719 -1.824219 3.402344 -2.527344 3.402344 -3.730469 L 3.402344 -8.195312 L 1.03125 -8.195312 L 1.03125 -3.496094 C 1.03125 -1.21875 2.324219 0.21875 4.449219 0.21875 Z M 4.449219 0.21875 "/></g></g></g><g fill="#000000" fill-opacity="1"><g transform="translate(390.42804, 258.621777)"><g><path d="M 5.089844 0.21875 C 7.398438 0.21875 9.128906 -1.140625 9.566406 -3.292969 L 7.257812 -3.292969 C 6.929688 -2.402344 6.117188 -1.824219 5.121094 -1.824219 C 3.839844 -1.824219 2.949219 -2.761719 2.949219 -4.105469 C 2.949219 -5.445312 3.839844 -6.382812 5.121094 -6.382812 C 6.054688 -6.382812 6.820312 -5.882812 7.210938 -5.058594 L 9.488281 -5.058594 C 9.113281 -7.085938 7.367188 -8.414062 5.089844 -8.414062 C 2.464844 -8.414062 0.609375 -6.617188 0.609375 -4.105469 C 0.609375 -1.578125 2.449219 0.21875 5.089844 0.21875 Z M 5.089844 0.21875 "/></g></g></g><g fill="#000000" fill-opacity="1"><g transform="translate(400.566463, 258.621777)"><g><path d="M 3.917969 0.15625 C 5.136719 0.15625 6.132812 -0.234375 6.835938 -0.953125 L 7.101562 0 L 8.863281 0 L 8.863281 -4.933594 C 8.863281 -7.101562 7.398438 -8.414062 4.949219 -8.414062 C 2.855469 -8.414062 1.484375 -7.414062 1.1875 -5.632812 L 3.464844 -5.632812 C 3.605469 -6.210938 4.199219 -6.601562 4.964844 -6.601562 C 5.898438 -6.601562 6.539062 -6.070312 6.539062 -5.257812 L 6.539062 -4.886719 L 3.574219 -4.886719 C 1.871094 -4.886719 0.78125 -3.902344 0.78125 -2.386719 C 0.78125 -0.8125 1.980469 0.15625 3.917969 0.15625 Z M 3.121094 -2.480469 C 3.121094 -3.042969 3.589844 -3.402344 4.308594 -3.402344 L 6.554688 -3.402344 C 6.507812 -2.292969 5.648438 -1.546875 4.464844 -1.546875 C 3.652344 -1.546875 3.121094 -1.917969 3.121094 -2.480469 Z M 3.121094 -2.480469 "/></g></g></g><g fill="#000000" fill-opacity="1"><g transform="translate(410.455324, 258.621777)"><g><path d="M 5.136719 0 L 6.632812 0 L 6.632812 -2.058594 L 5.648438 -2.058594 C 4.714844 -2.058594 4.277344 -2.511719 4.277344 -3.464844 L 4.277344 -6.257812 L 6.523438 -6.257812 L 6.523438 -8.195312 L 4.277344 -8.195312 L 4.277344 -10.316406 L 2.433594 -10.316406 L 2.292969 -9.253906 C 2.167969 -8.414062 1.933594 -8.195312 1.046875 -8.195312 L 0.3125 -8.195312 L 0.3125 -6.257812 L 1.902344 -6.257812 L 1.902344 -3.105469 C 1.902344 -1.109375 3.058594 0 5.136719 0 Z M 5.136719 0 "/></g></g></g><g fill="#000000" fill-opacity="1"><g transform="translate(417.739396, 258.621777)"><g><path d="M 5.058594 0.21875 C 7.070312 0.21875 8.664062 -0.8125 9.378906 -2.542969 L 6.976562 -2.542969 C 6.585938 -1.996094 5.882812 -1.6875 5.105469 -1.6875 C 4.027344 -1.6875 3.183594 -2.292969 2.964844 -3.417969 L 9.535156 -3.417969 C 9.675781 -6.414062 7.898438 -8.414062 5.089844 -8.414062 C 2.433594 -8.414062 0.609375 -6.648438 0.609375 -4.105469 C 0.609375 -1.546875 2.417969 0.21875 5.058594 0.21875 Z M 2.980469 -4.917969 C 3.246094 -5.914062 4.058594 -6.523438 5.105469 -6.523438 C 6.195312 -6.523438 6.976562 -5.914062 7.242188 -4.917969 Z M 2.980469 -4.917969 "/></g></g></g><g fill="#000000" fill-opacity="1"><g transform="translate(427.86222, 258.621777)"><g/></g></g><g fill="#000000" fill-opacity="1"><g transform="translate(431.527648, 258.621777)"><g><path d="M 3.917969 0.15625 C 5.136719 0.15625 6.132812 -0.234375 6.835938 -0.953125 L 7.101562 0 L 8.863281 0 L 8.863281 -4.933594 C 8.863281 -7.101562 7.398438 -8.414062 4.949219 -8.414062 C 2.855469 -8.414062 1.484375 -7.414062 1.1875 -5.632812 L 3.464844 -5.632812 C 3.605469 -6.210938 4.199219 -6.601562 4.964844 -6.601562 C 5.898438 -6.601562 6.539062 -6.070312 6.539062 -5.257812 L 6.539062 -4.886719 L 3.574219 -4.886719 C 1.871094 -4.886719 0.78125 -3.902344 0.78125 -2.386719 C 0.78125 -0.8125 1.980469 0.15625 3.917969 0.15625 Z M 3.121094 -2.480469 C 3.121094 -3.042969 3.589844 -3.402344 4.308594 -3.402344 L 6.554688 -3.402344 C 6.507812 -2.292969 5.648438 -1.546875 4.464844 -1.546875 C 3.652344 -1.546875 3.121094 -1.917969 3.121094 -2.480469 Z M 3.121094 -2.480469 "/></g></g></g><g fill="#000000" fill-opacity="1"><g transform="translate(441.41651, 258.621777)"><g><path d="M 6.148438 0.21875 C 8.601562 0.21875 10.332031 -1.5625 10.332031 -4.105469 C 10.332031 -6.617188 8.601562 -8.414062 6.148438 -8.414062 C 5.136719 -8.414062 4.246094 -8.101562 3.558594 -7.554688 L 3.558594 -11.550781 L 1.1875 -11.550781 L 1.1875 0 L 2.949219 0 L 3.214844 -0.9375 C 3.949219 -0.203125 4.964844 0.21875 6.148438 0.21875 Z M 3.464844 -4.105469 C 3.464844 -5.429688 4.402344 -6.382812 5.726562 -6.382812 C 7.070312 -6.382812 7.992188 -5.429688 7.992188 -4.105469 C 7.992188 -2.761719 7.070312 -1.824219 5.726562 -1.824219 C 4.402344 -1.824219 3.464844 -2.761719 3.464844 -4.105469 Z M 3.464844 -4.105469 "/></g></g></g><g fill="#000000" fill-opacity="1"><g transform="translate(452.350411, 258.621777)"><g><path d="M 5.214844 0.21875 C 7.929688 0.21875 9.800781 -1.546875 9.800781 -4.105469 C 9.800781 -6.648438 7.929688 -8.414062 5.214844 -8.414062 C 2.480469 -8.414062 0.609375 -6.648438 0.609375 -4.105469 C 0.609375 -1.546875 2.480469 0.21875 5.214844 0.21875 Z M 2.949219 -4.105469 C 2.949219 -5.445312 3.886719 -6.382812 5.214844 -6.382812 C 6.539062 -6.382812 7.460938 -5.445312 7.460938 -4.105469 C 7.460938 -2.761719 6.539062 -1.824219 5.214844 -1.824219 C 3.886719 -1.824219 2.949219 -2.761719 2.949219 -4.105469 Z M 2.949219 -4.105469 "/></g></g></g><g fill="#000000" fill-opacity="1"><g transform="translate(462.753993, 258.621777)"><g><path d="M 4.449219 0.21875 C 5.523438 0.21875 6.492188 -0.15625 7.148438 -0.921875 L 7.398438 0 L 9.160156 0 L 9.160156 -8.195312 L 6.789062 -8.195312 L 6.789062 -3.917969 C 6.789062 -2.621094 6.085938 -1.824219 5.011719 -1.824219 C 4.011719 -1.824219 3.402344 -2.527344 3.402344 -3.730469 L 3.402344 -8.195312 L 1.03125 -8.195312 L 1.03125 -3.496094 C 1.03125 -1.21875 2.324219 0.21875 4.449219 0.21875 Z M 4.449219 0.21875 "/></g></g></g><g fill="#000000" fill-opacity="1"><g transform="translate(473.095194, 258.621777)"><g><path d="M 5.136719 0 L 6.632812 0 L 6.632812 -2.058594 L 5.648438 -2.058594 C 4.714844 -2.058594 4.277344 -2.511719 4.277344 -3.464844 L 4.277344 -6.257812 L 6.523438 -6.257812 L 6.523438 -8.195312 L 4.277344 -8.195312 L 4.277344 -10.316406 L 2.433594 -10.316406 L 2.292969 -9.253906 C 2.167969 -8.414062 1.933594 -8.195312 1.046875 -8.195312 L 0.3125 -8.195312 L 0.3125 -6.257812 L 1.902344 -6.257812 L 1.902344 -3.105469 C 1.902344 -1.109375 3.058594 0 5.136719 0 Z M 5.136719 0 "/></g></g></g><g fill="#000000" fill-opacity="1"><g transform="translate(480.379266, 258.621777)"><g/></g></g><g fill="#000000" fill-opacity="1"><g transform="translate(484.044694, 258.621777)"><g><path d="M 1.996094 -8.847656 L 1.996094 -8.195312 L 0.359375 -8.195312 L 0.359375 -6.257812 L 1.996094 -6.257812 L 1.996094 0 L 4.371094 0 L 4.371094 -6.257812 L 6.773438 -6.257812 L 6.773438 -8.195312 L 4.324219 -8.195312 L 4.324219 -8.722656 C 4.324219 -9.582031 4.699219 -9.972656 5.554688 -9.972656 L 6.851562 -9.972656 L 6.851562 -11.847656 L 5.042969 -11.847656 C 3.074219 -11.847656 1.996094 -10.785156 1.996094 -8.847656 Z M 1.996094 -8.847656 "/></g></g></g><g fill="#000000" fill-opacity="1"><g transform="translate(491.048008, 258.621777)"><g><path d="M 3.917969 0.15625 C 5.136719 0.15625 6.132812 -0.234375 6.835938 -0.953125 L 7.101562 0 L 8.863281 0 L 8.863281 -4.933594 C 8.863281 -7.101562 7.398438 -8.414062 4.949219 -8.414062 C 2.855469 -8.414062 1.484375 -7.414062 1.1875 -5.632812 L 3.464844 -5.632812 C 3.605469 -6.210938 4.199219 -6.601562 4.964844 -6.601562 C 5.898438 -6.601562 6.539062 -6.070312 6.539062 -5.257812 L 6.539062 -4.886719 L 3.574219 -4.886719 C 1.871094 -4.886719 0.78125 -3.902344 0.78125 -2.386719 C 0.78125 -0.8125 1.980469 0.15625 3.917969 0.15625 Z M 3.121094 -2.480469 C 3.121094 -3.042969 3.589844 -3.402344 4.308594 -3.402344 L 6.554688 -3.402344 C 6.507812 -2.292969 5.648438 -1.546875 4.464844 -1.546875 C 3.652344 -1.546875 3.121094 -1.917969 3.121094 -2.480469 Z M 3.121094 -2.480469 "/></g></g></g><g fill="#000000" fill-opacity="1"><g transform="translate(500.936869, 258.621777)"><g><path d="M 6.148438 0.21875 C 8.601562 0.21875 10.332031 -1.5625 10.332031 -4.105469 C 10.332031 -6.617188 8.601562 -8.414062 6.148438 -8.414062 C 5.136719 -8.414062 4.246094 -8.101562 3.558594 -7.554688 L 3.558594 -11.550781 L 1.1875 -11.550781 L 1.1875 0 L 2.949219 0 L 3.214844 -0.9375 C 3.949219 -0.203125 4.964844 0.21875 6.148438 0.21875 Z M 3.464844 -4.105469 C 3.464844 -5.429688 4.402344 -6.382812 5.726562 -6.382812 C 7.070312 -6.382812 7.992188 -5.429688 7.992188 -4.105469 C 7.992188 -2.761719 7.070312 -1.824219 5.726562 -1.824219 C 4.402344 -1.824219 3.464844 -2.761719 3.464844 -4.105469 Z M 3.464844 -4.105469 "/></g></g></g><g fill="#000000" fill-opacity="1"><g transform="translate(511.870771, 258.621777)"><g><path d="M 1.1875 0 L 3.558594 0 L 3.558594 -3.621094 C 3.558594 -5.382812 4.386719 -6.039062 5.742188 -6.039062 L 6.648438 -6.039062 L 6.648438 -8.195312 L 5.757812 -8.195312 C 4.558594 -8.195312 3.792969 -7.867188 3.261719 -7.101562 L 2.949219 -8.195312 L 1.1875 -8.195312 Z M 1.1875 0 "/></g></g></g><g fill="#000000" fill-opacity="1"><g transform="translate(519.045655, 258.621777)"><g><path d="M 1.1875 0 L 3.558594 0 L 3.558594 -8.195312 L 1.1875 -8.195312 Z M 0.84375 -10.847656 C 0.84375 -9.972656 1.46875 -9.363281 2.371094 -9.363281 C 3.277344 -9.363281 3.902344 -9.972656 3.902344 -10.847656 C 3.902344 -11.722656 3.277344 -12.328125 2.371094 -12.328125 C 1.46875 -12.328125 0.84375 -11.722656 0.84375 -10.847656 Z M 0.84375 -10.847656 "/></g></g></g><g fill="#000000" fill-opacity="1"><g transform="translate(523.787319, 258.621777)"><g><path d="M 5.089844 0.21875 C 7.398438 0.21875 9.128906 -1.140625 9.566406 -3.292969 L 7.257812 -3.292969 C 6.929688 -2.402344 6.117188 -1.824219 5.121094 -1.824219 C 3.839844 -1.824219 2.949219 -2.761719 2.949219 -4.105469 C 2.949219 -5.445312 3.839844 -6.382812 5.121094 -6.382812 C 6.054688 -6.382812 6.820312 -5.882812 7.210938 -5.058594 L 9.488281 -5.058594 C 9.113281 -7.085938 7.367188 -8.414062 5.089844 -8.414062 C 2.464844 -8.414062 0.609375 -6.617188 0.609375 -4.105469 C 0.609375 -1.578125 2.449219 0.21875 5.089844 0.21875 Z M 5.089844 0.21875 "/></g></g></g><g fill="#000000" fill-opacity="1"><g transform="translate(533.925742, 258.621777)"><g><path d="M 4.339844 0.21875 C 6.554688 0.21875 7.898438 -0.75 7.898438 -2.308594 C 7.898438 -3.652344 6.898438 -4.511719 4.871094 -4.917969 C 3.464844 -5.199219 3.027344 -5.429688 3.027344 -5.929688 C 3.027344 -6.414062 3.464844 -6.695312 4.167969 -6.695312 C 4.964844 -6.695312 5.445312 -6.335938 5.492188 -5.710938 L 7.757812 -5.710938 C 7.648438 -7.445312 6.367188 -8.414062 4.183594 -8.414062 C 1.980469 -8.414062 0.734375 -7.523438 0.734375 -5.929688 C 0.734375 -4.574219 1.671875 -3.761719 3.761719 -3.386719 C 5.027344 -3.167969 5.554688 -2.839844 5.554688 -2.324219 C 5.554688 -1.839844 5.121094 -1.546875 4.371094 -1.546875 C 3.496094 -1.546875 2.964844 -1.964844 2.949219 -2.636719 L 0.625 -2.636719 C 0.625 -0.921875 2.089844 0.21875 4.339844 0.21875 Z M 4.339844 0.21875 "/></g></g></g><g fill="#000000" fill-opacity="1"><g transform="translate(542.45762, 258.621777)"><g/></g></g><g fill="#000000" fill-opacity="1"><g transform="translate(546.123048, 258.621777)"><g><path d="M 5.214844 0.21875 C 7.929688 0.21875 9.800781 -1.546875 9.800781 -4.105469 C 9.800781 -6.648438 7.929688 -8.414062 5.214844 -8.414062 C 2.480469 -8.414062 0.609375 -6.648438 0.609375 -4.105469 C 0.609375 -1.546875 2.480469 0.21875 5.214844 0.21875 Z M 2.949219 -4.105469 C 2.949219 -5.445312 3.886719 -6.382812 5.214844 -6.382812 C 6.539062 -6.382812 7.460938 -5.445312 7.460938 -4.105469 C 7.460938 -2.761719 6.539062 -1.824219 5.214844 -1.824219 C 3.886719 -1.824219 2.949219 -2.761719 2.949219 -4.105469 Z M 2.949219 -4.105469 "/></g></g></g><g fill="#000000" fill-opacity="1"><g transform="translate(556.526642, 258.621777)"><g><path d="M 1.1875 0 L 3.558594 0 L 3.558594 -4.292969 C 3.558594 -5.585938 4.277344 -6.382812 5.367188 -6.382812 C 6.382812 -6.382812 6.992188 -5.664062 6.992188 -4.464844 L 6.992188 0 L 9.363281 0 L 9.363281 -4.714844 C 9.363281 -6.976562 8.070312 -8.414062 5.929688 -8.414062 C 4.839844 -8.414062 3.855469 -8.039062 3.199219 -7.273438 L 2.949219 -8.195312 L 1.1875 -8.195312 Z M 1.1875 0 "/></g></g></g><g fill="#000000" fill-opacity="1"><g transform="translate(359.030113, 281.871774)"><g><path d="M 5.214844 0.21875 C 7.929688 0.21875 9.800781 -1.546875 9.800781 -4.105469 C 9.800781 -6.648438 7.929688 -8.414062 5.214844 -8.414062 C 2.480469 -8.414062 0.609375 -6.648438 0.609375 -4.105469 C 0.609375 -1.546875 2.480469 0.21875 5.214844 0.21875 Z M 2.949219 -4.105469 C 2.949219 -5.445312 3.886719 -6.382812 5.214844 -6.382812 C 6.539062 -6.382812 7.460938 -5.445312 7.460938 -4.105469 C 7.460938 -2.761719 6.539062 -1.824219 5.214844 -1.824219 C 3.886719 -1.824219 2.949219 -2.761719 2.949219 -4.105469 Z M 2.949219 -4.105469 "/></g></g></g><g fill="#000000" fill-opacity="1"><g transform="translate(369.433696, 281.871774)"><g><path d="M 4.449219 0.21875 C 5.523438 0.21875 6.492188 -0.15625 7.148438 -0.921875 L 7.398438 0 L 9.160156 0 L 9.160156 -8.195312 L 6.789062 -8.195312 L 6.789062 -3.917969 C 6.789062 -2.621094 6.085938 -1.824219 5.011719 -1.824219 C 4.011719 -1.824219 3.402344 -2.527344 3.402344 -3.730469 L 3.402344 -8.195312 L 1.03125 -8.195312 L 1.03125 -3.496094 C 1.03125 -1.21875 2.324219 0.21875 4.449219 0.21875 Z M 4.449219 0.21875 "/></g></g></g><g fill="#000000" fill-opacity="1"><g transform="translate(379.774896, 281.871774)"><g><path d="M 1.1875 0 L 3.558594 0 L 3.558594 -3.621094 C 3.558594 -5.382812 4.386719 -6.039062 5.742188 -6.039062 L 6.648438 -6.039062 L 6.648438 -8.195312 L 5.757812 -8.195312 C 4.558594 -8.195312 3.792969 -7.867188 3.261719 -7.101562 L 2.949219 -8.195312 L 1.1875 -8.195312 Z M 1.1875 0 "/></g></g></g><g fill="#000000" fill-opacity="1"><g transform="translate(386.94978, 281.871774)"><g/></g></g><g fill="#000000" fill-opacity="1"><g transform="translate(390.615208, 281.871774)"><g><path d="M 1.3125 0 L 3.792969 0 L 3.792969 -10.925781 L 1.3125 -10.925781 Z M 1.3125 0 "/></g></g></g><g fill="#000000" fill-opacity="1"><g transform="translate(395.715622, 281.871774)"><g><path d="M 1.1875 0 L 3.558594 0 L 3.558594 -4.292969 C 3.558594 -5.585938 4.277344 -6.382812 5.367188 -6.382812 C 6.382812 -6.382812 6.992188 -5.664062 6.992188 -4.464844 L 6.992188 0 L 9.363281 0 L 9.363281 -4.714844 C 9.363281 -6.976562 8.070312 -8.414062 5.929688 -8.414062 C 4.839844 -8.414062 3.855469 -8.039062 3.199219 -7.273438 L 2.949219 -8.195312 L 1.1875 -8.195312 Z M 1.1875 0 "/></g></g></g><g fill="#000000" fill-opacity="1"><g transform="translate(406.103606, 281.871774)"><g><path d="M 4.339844 0.21875 C 6.554688 0.21875 7.898438 -0.75 7.898438 -2.308594 C 7.898438 -3.652344 6.898438 -4.511719 4.871094 -4.917969 C 3.464844 -5.199219 3.027344 -5.429688 3.027344 -5.929688 C 3.027344 -6.414062 3.464844 -6.695312 4.167969 -6.695312 C 4.964844 -6.695312 5.445312 -6.335938 5.492188 -5.710938 L 7.757812 -5.710938 C 7.648438 -7.445312 6.367188 -8.414062 4.183594 -8.414062 C 1.980469 -8.414062 0.734375 -7.523438 0.734375 -5.929688 C 0.734375 -4.574219 1.671875 -3.761719 3.761719 -3.386719 C 5.027344 -3.167969 5.554688 -2.839844 5.554688 -2.324219 C 5.554688 -1.839844 5.121094 -1.546875 4.371094 -1.546875 C 3.496094 -1.546875 2.964844 -1.964844 2.949219 -2.636719 L 0.625 -2.636719 C 0.625 -0.921875 2.089844 0.21875 4.339844 0.21875 Z M 4.339844 0.21875 "/></g></g></g><g fill="#000000" fill-opacity="1"><g transform="translate(414.635484, 281.871774)"><g><path d="M 5.136719 0 L 6.632812 0 L 6.632812 -2.058594 L 5.648438 -2.058594 C 4.714844 -2.058594 4.277344 -2.511719 4.277344 -3.464844 L 4.277344 -6.257812 L 6.523438 -6.257812 L 6.523438 -8.195312 L 4.277344 -8.195312 L 4.277344 -10.316406 L 2.433594 -10.316406 L 2.292969 -9.253906 C 2.167969 -8.414062 1.933594 -8.195312 1.046875 -8.195312 L 0.3125 -8.195312 L 0.3125 -6.257812 L 1.902344 -6.257812 L 1.902344 -3.105469 C 1.902344 -1.109375 3.058594 0 5.136719 0 Z M 5.136719 0 "/></g></g></g><g fill="#000000" fill-opacity="1"><g transform="translate(421.919556, 281.871774)"><g><path d="M 3.917969 0.15625 C 5.136719 0.15625 6.132812 -0.234375 6.835938 -0.953125 L 7.101562 0 L 8.863281 0 L 8.863281 -4.933594 C 8.863281 -7.101562 7.398438 -8.414062 4.949219 -8.414062 C 2.855469 -8.414062 1.484375 -7.414062 1.1875 -5.632812 L 3.464844 -5.632812 C 3.605469 -6.210938 4.199219 -6.601562 4.964844 -6.601562 C 5.898438 -6.601562 6.539062 -6.070312 6.539062 -5.257812 L 6.539062 -4.886719 L 3.574219 -4.886719 C 1.871094 -4.886719 0.78125 -3.902344 0.78125 -2.386719 C 0.78125 -0.8125 1.980469 0.15625 3.917969 0.15625 Z M 3.121094 -2.480469 C 3.121094 -3.042969 3.589844 -3.402344 4.308594 -3.402344 L 6.554688 -3.402344 C 6.507812 -2.292969 5.648438 -1.546875 4.464844 -1.546875 C 3.652344 -1.546875 3.121094 -1.917969 3.121094 -2.480469 Z M 3.121094 -2.480469 "/></g></g></g><g fill="#000000" fill-opacity="1"><g transform="translate(431.808417, 281.871774)"><g><path d="M 5.183594 3.464844 C 7.804688 3.464844 9.472656 1.996094 9.472656 -0.453125 L 9.472656 -8.195312 L 7.710938 -8.195312 L 7.460938 -7.289062 C 6.742188 -8.007812 5.742188 -8.414062 4.574219 -8.414062 C 2.261719 -8.414062 0.609375 -6.710938 0.609375 -4.324219 C 0.609375 -1.917969 2.261719 -0.21875 4.574219 -0.21875 C 5.554688 -0.21875 6.429688 -0.515625 7.101562 -1.03125 L 7.101562 -0.453125 C 7.101562 0.875 6.429688 1.546875 5.136719 1.546875 C 4.152344 1.546875 3.496094 1.140625 3.324219 0.421875 L 1.015625 0.421875 C 1.21875 2.308594 2.808594 3.464844 5.183594 3.464844 Z M 2.949219 -4.324219 C 2.949219 -5.570312 3.824219 -6.445312 5.074219 -6.445312 C 6.320312 -6.445312 7.210938 -5.570312 7.210938 -4.324219 C 7.210938 -3.058594 6.320312 -2.183594 5.074219 -2.183594 C 3.824219 -2.183594 2.949219 -3.058594 2.949219 -4.324219 Z M 2.949219 -4.324219 "/></g></g></g><g fill="#000000" fill-opacity="1"><g transform="translate(442.477159, 281.871774)"><g><path d="M 1.1875 0 L 3.558594 0 L 3.558594 -3.621094 C 3.558594 -5.382812 4.386719 -6.039062 5.742188 -6.039062 L 6.648438 -6.039062 L 6.648438 -8.195312 L 5.757812 -8.195312 C 4.558594 -8.195312 3.792969 -7.867188 3.261719 -7.101562 L 2.949219 -8.195312 L 1.1875 -8.195312 Z M 1.1875 0 "/></g></g></g><g fill="#000000" fill-opacity="1"><g transform="translate(449.652043, 281.871774)"><g><path d="M 3.917969 0.15625 C 5.136719 0.15625 6.132812 -0.234375 6.835938 -0.953125 L 7.101562 0 L 8.863281 0 L 8.863281 -4.933594 C 8.863281 -7.101562 7.398438 -8.414062 4.949219 -8.414062 C 2.855469 -8.414062 1.484375 -7.414062 1.1875 -5.632812 L 3.464844 -5.632812 C 3.605469 -6.210938 4.199219 -6.601562 4.964844 -6.601562 C 5.898438 -6.601562 6.539062 -6.070312 6.539062 -5.257812 L 6.539062 -4.886719 L 3.574219 -4.886719 C 1.871094 -4.886719 0.78125 -3.902344 0.78125 -2.386719 C 0.78125 -0.8125 1.980469 0.15625 3.917969 0.15625 Z M 3.121094 -2.480469 C 3.121094 -3.042969 3.589844 -3.402344 4.308594 -3.402344 L 6.554688 -3.402344 C 6.507812 -2.292969 5.648438 -1.546875 4.464844 -1.546875 C 3.652344 -1.546875 3.121094 -1.917969 3.121094 -2.480469 Z M 3.121094 -2.480469 "/></g></g></g><g fill="#000000" fill-opacity="1"><g transform="translate(459.540905, 281.871774)"><g><path d="M 1.1875 0 L 3.558594 0 L 3.558594 -4.433594 C 3.558594 -5.617188 4.214844 -6.382812 5.226562 -6.382812 C 6.210938 -6.382812 6.820312 -5.648438 6.820312 -4.496094 L 6.820312 0 L 9.160156 0 L 9.160156 -4.433594 C 9.160156 -5.617188 9.816406 -6.382812 10.832031 -6.382812 C 11.816406 -6.382812 12.421875 -5.648438 12.421875 -4.496094 L 12.421875 0 L 14.796875 0 L 14.796875 -4.777344 C 14.796875 -7.023438 13.453125 -8.414062 11.363281 -8.414062 C 10.113281 -8.414062 9.082031 -7.929688 8.414062 -7.070312 C 7.835938 -7.945312 6.882812 -8.414062 5.710938 -8.414062 C 4.667969 -8.414062 3.777344 -8.054688 3.183594 -7.351562 L 2.949219 -8.195312 L 1.1875 -8.195312 Z M 1.1875 0 "/></g></g></g><g fill="#000000" fill-opacity="1"><g transform="translate(475.356855, 281.871774)"><g/></g></g><g fill="#000000" fill-opacity="1"><g transform="translate(479.022283, 281.871774)"><g><path d="M 6.148438 0.21875 C 8.601562 0.21875 10.332031 -1.5625 10.332031 -4.105469 C 10.332031 -6.617188 8.601562 -8.414062 6.148438 -8.414062 C 4.964844 -8.414062 3.949219 -7.992188 3.214844 -7.257812 L 2.949219 -8.195312 L 1.1875 -8.195312 L 1.1875 3.121094 L 3.558594 3.121094 L 3.558594 -0.640625 C 4.246094 -0.09375 5.136719 0.21875 6.148438 0.21875 Z M 3.464844 -4.105469 C 3.464844 -5.429688 4.402344 -6.382812 5.726562 -6.382812 C 7.070312 -6.382812 7.992188 -5.429688 7.992188 -4.105469 C 7.992188 -2.761719 7.070312 -1.824219 5.726562 -1.824219 C 4.402344 -1.824219 3.464844 -2.761719 3.464844 -4.105469 Z M 3.464844 -4.105469 "/></g></g></g><g fill="#000000" fill-opacity="1"><g transform="translate(489.956184, 281.871774)"><g><path d="M 3.917969 0.15625 C 5.136719 0.15625 6.132812 -0.234375 6.835938 -0.953125 L 7.101562 0 L 8.863281 0 L 8.863281 -4.933594 C 8.863281 -7.101562 7.398438 -8.414062 4.949219 -8.414062 C 2.855469 -8.414062 1.484375 -7.414062 1.1875 -5.632812 L 3.464844 -5.632812 C 3.605469 -6.210938 4.199219 -6.601562 4.964844 -6.601562 C 5.898438 -6.601562 6.539062 -6.070312 6.539062 -5.257812 L 6.539062 -4.886719 L 3.574219 -4.886719 C 1.871094 -4.886719 0.78125 -3.902344 0.78125 -2.386719 C 0.78125 -0.8125 1.980469 0.15625 3.917969 0.15625 Z M 3.121094 -2.480469 C 3.121094 -3.042969 3.589844 -3.402344 4.308594 -3.402344 L 6.554688 -3.402344 C 6.507812 -2.292969 5.648438 -1.546875 4.464844 -1.546875 C 3.652344 -1.546875 3.121094 -1.917969 3.121094 -2.480469 Z M 3.121094 -2.480469 "/></g></g></g><g fill="#000000" fill-opacity="1"><g transform="translate(499.845046, 281.871774)"><g><path d="M 5.183594 3.464844 C 7.804688 3.464844 9.472656 1.996094 9.472656 -0.453125 L 9.472656 -8.195312 L 7.710938 -8.195312 L 7.460938 -7.289062 C 6.742188 -8.007812 5.742188 -8.414062 4.574219 -8.414062 C 2.261719 -8.414062 0.609375 -6.710938 0.609375 -4.324219 C 0.609375 -1.917969 2.261719 -0.21875 4.574219 -0.21875 C 5.554688 -0.21875 6.429688 -0.515625 7.101562 -1.03125 L 7.101562 -0.453125 C 7.101562 0.875 6.429688 1.546875 5.136719 1.546875 C 4.152344 1.546875 3.496094 1.140625 3.324219 0.421875 L 1.015625 0.421875 C 1.21875 2.308594 2.808594 3.464844 5.183594 3.464844 Z M 2.949219 -4.324219 C 2.949219 -5.570312 3.824219 -6.445312 5.074219 -6.445312 C 6.320312 -6.445312 7.210938 -5.570312 7.210938 -4.324219 C 7.210938 -3.058594 6.320312 -2.183594 5.074219 -2.183594 C 3.824219 -2.183594 2.949219 -3.058594 2.949219 -4.324219 Z M 2.949219 -4.324219 "/></g></g></g><g fill="#000000" fill-opacity="1"><g transform="translate(510.513787, 281.871774)"><g><path d="M 5.058594 0.21875 C 7.070312 0.21875 8.664062 -0.8125 9.378906 -2.542969 L 6.976562 -2.542969 C 6.585938 -1.996094 5.882812 -1.6875 5.105469 -1.6875 C 4.027344 -1.6875 3.183594 -2.292969 2.964844 -3.417969 L 9.535156 -3.417969 C 9.675781 -6.414062 7.898438 -8.414062 5.089844 -8.414062 C 2.433594 -8.414062 0.609375 -6.648438 0.609375 -4.105469 C 0.609375 -1.546875 2.417969 0.21875 5.058594 0.21875 Z M 2.980469 -4.917969 C 3.246094 -5.914062 4.058594 -6.523438 5.105469 -6.523438 C 6.195312 -6.523438 6.976562 -5.914062 7.242188 -4.917969 Z M 2.980469 -4.917969 "/></g></g></g><g fill="#000000" fill-opacity="1"><g transform="translate(520.636612, 281.871774)"><g><path d="M 2.089844 0.171875 C 2.933594 0.171875 3.542969 -0.421875 3.542969 -1.234375 C 3.542969 -2.042969 2.933594 -2.652344 2.089844 -2.652344 C 1.234375 -2.652344 0.640625 -2.042969 0.640625 -1.234375 C 0.640625 -0.421875 1.234375 0.171875 2.089844 0.171875 Z M 2.089844 0.171875 "/></g></g></g><g fill="#000000" fill-opacity="1"><g transform="translate(524.801162, 281.871774)"><g><path d="M 1.28125 -7.851562 L 1.28125 -6.710938 C 2.839844 -6.820312 3.714844 -8.257812 3.714844 -9.675781 C 3.714844 -10.785156 3.121094 -11.675781 2.058594 -11.675781 C 1.203125 -11.675781 0.640625 -11.082031 0.640625 -10.316406 C 0.640625 -9.550781 1.203125 -8.972656 2.011719 -8.972656 C 2.089844 -8.972656 2.167969 -8.972656 2.261719 -8.988281 C 2.230469 -8.382812 1.886719 -8.007812 1.28125 -7.851562 Z M 4.074219 -10.316406 C 4.074219 -9.550781 4.636719 -8.972656 5.445312 -8.972656 C 5.523438 -8.972656 5.601562 -8.972656 5.695312 -8.988281 C 5.664062 -8.382812 5.320312 -8.007812 4.714844 -7.851562 L 4.714844 -6.710938 C 6.273438 -6.820312 7.148438 -8.257812 7.148438 -9.675781 C 7.148438 -10.785156 6.554688 -11.675781 5.492188 -11.675781 C 4.636719 -11.675781 4.074219 -11.082031 4.074219 -10.316406 Z M 4.074219 -10.316406 "/></g></g></g><g fill="#000000" fill-opacity="1"><g transform="translate(359.030113, 113.425928)"><g><path d="M 3.242188 0 L 17.097656 0 L 20.441406 -2.777344 L 24.210938 -20.40625 L 21.996094 -23.152344 L 8.136719 -23.152344 L 4.828125 -20.40625 L 1.058594 -2.777344 Z M 6.316406 -4.929688 L 9.160156 -18.222656 L 10.054688 -18.984375 L 18.355469 -18.984375 L 18.953125 -18.222656 L 16.105469 -4.929688 L 15.179688 -4.167969 L 6.878906 -4.167969 Z M 6.316406 -4.929688 "/></g></g></g><g fill="#000000" fill-opacity="1"><g transform="translate(384.197962, 113.425928)"><g><path d="M 3.703125 0 L 17.5625 0 L 20.902344 -2.777344 L 25.234375 -23.152344 L 20.441406 -23.152344 L 16.570312 -4.929688 L 15.644531 -4.167969 L 7.34375 -4.167969 L 6.746094 -4.929688 L 10.617188 -23.152344 L 5.820312 -23.152344 L 1.488281 -2.777344 Z M 3.703125 0 "/></g></g></g><g fill="#000000" fill-opacity="1"><g transform="translate(410.291816, 113.425928)"><g><path d="M 0.925781 0 L 5.722656 0 L 7.34375 -7.738281 L 16.140625 -7.738281 L 16.96875 -6.746094 L 15.546875 0 L 20.339844 0 L 21.894531 -7.441406 L 20.042969 -9.824219 L 22.921875 -12.203125 L 24.671875 -20.40625 L 22.457031 -23.152344 L 5.820312 -23.152344 Z M 8.234375 -11.90625 L 9.757812 -18.984375 L 18.820312 -18.984375 L 19.414062 -18.222656 L 18.257812 -12.898438 L 17.035156 -11.90625 Z M 8.234375 -11.90625 "/></g></g></g><g fill="#000000" fill-opacity="1"><g transform="translate(436.253379, 113.425928)"><g/></g></g><g fill="#000000" fill-opacity="1"><g transform="translate(446.373565, 113.425928)"><g><path d="M 7.375 0 L 13.890625 0 L 21.695312 -6.449219 L 25.234375 -23.152344 L 20.441406 -23.152344 L 17.230469 -8.003906 L 12.566406 -4.167969 L 10.417969 -4.167969 L 7.410156 -8.003906 L 10.617188 -23.152344 L 5.820312 -23.152344 L 2.28125 -6.449219 Z M 7.375 0 "/></g></g></g><g fill="#000000" fill-opacity="1"><g transform="translate(472.467414, 113.425928)"><g><path d="M 0.925781 0 L 5.722656 0 L 10.617188 -23.152344 L 5.820312 -23.152344 Z M 0.925781 0 "/></g></g></g><g fill="#000000" fill-opacity="1"><g transform="translate(483.976625, 113.425928)"><g><path d="M 3.242188 0 L 17.097656 0 L 20.441406 -2.777344 L 22.160156 -10.816406 L 20.011719 -13.792969 L 8.929688 -13.792969 L 8.367188 -14.554688 L 9.160156 -18.222656 L 10.054688 -18.984375 L 18.355469 -18.984375 L 18.953125 -18.222656 L 18.457031 -16.007812 L 23.25 -16.007812 L 24.210938 -20.40625 L 21.996094 -23.152344 L 8.136719 -23.152344 L 4.828125 -20.40625 L 3.109375 -12.371094 L 5.257812 -9.625 L 16.339844 -9.625 L 16.96875 -8.863281 L 16.105469 -4.929688 L 15.179688 -4.167969 L 6.878906 -4.167969 L 6.316406 -4.929688 L 6.78125 -7.144531 L 1.984375 -7.144531 L 1.058594 -2.777344 Z M 3.242188 0 "/></g></g></g><g fill="#000000" fill-opacity="1"><g transform="translate(509.144479, 113.425928)"><g><path d="M 0.925781 0 L 5.722656 0 L 10.617188 -23.152344 L 5.820312 -23.152344 Z M 0.925781 0 "/></g></g></g><g fill="#000000" fill-opacity="1"><g transform="translate(520.65369, 113.425928)"><g><path d="M 3.242188 0 L 17.097656 0 L 20.441406 -2.777344 L 24.210938 -20.40625 L 21.996094 -23.152344 L 8.136719 -23.152344 L 4.828125 -20.40625 L 1.058594 -2.777344 Z M 6.316406 -4.929688 L 9.160156 -18.222656 L 10.054688 -18.984375 L 18.355469 -18.984375 L 18.953125 -18.222656 L 16.105469 -4.929688 L 15.179688 -4.167969 L 6.878906 -4.167969 Z M 6.316406 -4.929688 "/></g></g></g><g fill="#000000" fill-opacity="1"><g transform="translate(545.821544, 113.425928)"><g><path d="M 0.925781 0 L 5.722656 0 L 9.589844 -18.222656 L 10.519531 -18.984375 L 18.820312 -18.984375 L 19.414062 -18.222656 L 15.546875 0 L 20.339844 0 L 24.671875 -20.40625 L 22.457031 -23.152344 L 8.597656 -23.152344 L 5.257812 -20.40625 Z M 0.925781 0 "/></g></g></g></svg>