<svg xmlns="http://www.w3.org/2000/svg" xmlns:xlink="http://www.w3.org/1999/xlink" width="500" zoomAndPan="magnify" viewBox="0 0 375 374.999991" height="500" preserveAspectRatio="xMidYMid meet" version="1.0"><path fill="#13fe64" d="M 214.394531 173.433594 C 213.851562 164.386719 209.707031 157.925781 201.742188 154.832031 C 191.078125 150.6875 180.691406 151.445312 171.3125 158.902344 C 169.601562 160.261719 168.761719 164.21875 165.398438 162.097656 C 161.347656 159.554688 157.257812 156.882812 153.855469 153.585938 C 152.535156 152.3125 155.269531 150.277344 156.472656 149.003906 C 169.425781 135.171875 185.570312 132.410156 203.207031 136.765625 C 220.683594 141.09375 229.53125 153.632812 232.160156 170.492188 C 233.132812 176.71875 235.453125 180.148438 240.960938 183.304688 C 267.308594 198.417969 274.046875 231.75 256.1875 256.488281 C 246.773438 269.535156 234.199219 278.453125 218.699219 282.71875 C 197.105469 288.648438 175.414062 288.320312 154.304688 280.679688 C 130.859375 272.207031 116.019531 254.96875 108.394531 231.855469 C 98.660156 202.320312 98.4375 172.304688 108.648438 142.976562 C 120.871094 107.84375 147.328125 91.355469 184.0625 88.910156 C 225.570312 86.148438 259.785156 107.445312 272.117188 144.867188 C 272.957031 147.410156 276.875 152.054688 270.355469 152.25 C 265.484375 152.390625 259.457031 160.90625 255.40625 150.402344 C 239.070312 108.027344 183.78125 92.027344 146.550781 118.777344 C 132.6875 128.730469 125.574219 143.117188 122.183594 159.152344 C 118.007812 178.917969 118.042969 198.828125 122.839844 218.671875 C 132.199219 257.367188 161.085938 270.8125 196.527344 268.707031 C 211.296875 267.828125 224.835938 263.578125 235.953125 253.160156 C 253.390625 236.816406 252.25 211.3125 233.078125 199.632812 C 231.636719 204.441406 230.542969 209.285156 228.757812 213.863281 C 219.0625 238.796875 185.96875 248.273438 164.105469 232.429688 C 153.195312 224.519531 148.519531 213.589844 151.191406 200.605469 C 154.269531 185.679688 165.355469 178.195312 179.429688 174.570312 C 190.84375 171.628906 202.496094 172.839844 214.394531 173.433594 Z M 198.761719 190.515625 C 191.390625 191.0625 183.636719 190.339844 176.585938 194.285156 C 171.480469 197.144531 168.292969 201.265625 168.25 207.09375 C 168.207031 212.648438 171.25 216.824219 176.214844 219.125 C 185.800781 223.574219 195.457031 223.59375 204.570312 217.886719 C 210.398438 214.234375 217.84375 198.792969 215.132812 194.179688 C 211.605469 188.160156 204.371094 192.066406 198.761719 190.515625 Z M 198.761719 190.515625 " fill-opacity="1" fill-rule="nonzero"/></svg>