<?xml version="1.0" encoding="UTF-8"?><svg id="a" xmlns="http://www.w3.org/2000/svg" viewBox="0 0 1793.11 701.54"><defs><style>.b{fill:#fff;}</style></defs><g><path class="b" d="M876.97,607.93c-51.13-57.28-98.27-86.33-140.14-86.33-29.18,0-46.27,14.41-51.57,19.72l-24.11-34.82c30.98-44.25,41.94-103.28,45.68-145.17,4.08-45.7,.67-81.45,.63-81.81l-.18-1.8h-48.12c42.17-31.12,67.07-65.68,80.67-89.59,10.24-18.01,15.67-32.52,18.21-40.41,19.72,67.87,1.63,166.72-10.46,232.82-7.9,43.15-11.47,64.16-6.6,70,.95,1.13,2.21,1.73,3.65,1.73,.51,0,1.04-.08,1.59-.22,1.24-.34,2.57-.51,3.96-.51,22.68,0,55.39,43.89,55.71,44.33l5.67,7.67-16.61-73.18,39.15-15.75,106.36,185.67-63.49,7.64Z"/><path class="b" d="M757.81,154.53c16.8,67.14-.51,161.75-12.2,225.65-8.22,44.95-11.63,65.09-6.17,71.64,1.32,1.58,3.16,2.45,5.19,2.45,.69,0,1.4-.1,2.11-.29,1.07-.29,2.22-.44,3.43-.44,17.99,0,45.16,31.42,54.11,43.52l11.34,15.34-4.22-18.6-14.12-62.22,35.95-14.47,104,181.54-59.46,7.16c-51.26-57.21-98.67-86.22-140.93-86.22-27.23,0-44.26,12.3-51.25,18.66l-22-31.76c30.62-44.48,41.51-103.22,45.24-144.99,4.09-45.88,.67-81.82,.63-82.18l-.35-3.61h-43.95c39.56-30.37,63.26-63.44,76.42-86.6,8.04-14.15,13.16-26.18,16.24-34.59m.16-13.75s-17.99,77.34-104.98,138.94h52.49s13.89,141.56-46.77,226.77l26.32,38.01s17.33-20.9,51.8-20.9c31.85,0,78.33,17.82,139.34,86.44l67.53-8.13-108.73-189.8-42.35,17.04,14.88,65.54s-33.36-45.15-57.32-45.15c-1.54,0-3.03,.19-4.48,.58-.38,.1-.73,.15-1.06,.15-20.69,0,50.19-199.83,13.33-309.5h0Z"/></g><g><path class="b" d="M978.59,690.53c-18.19,0-26.36-17.58-30.28-26.03l-.51-1.09c-7.22-15.36,37.25-141.25,55-188.47l.63-1.67-70.5-36.41,119.59,9.96-9.42,91.44,3.66-2.75c39.08-29.36,52.84-97.01,53.41-99.88,1.84-8.79,.41-16.52-4.25-22.96-10.41-14.37-33.15-17.07-34.12-17.18l-.14-.02h-.14c-16.37,.52-31.97,.78-46.36,.78-106.5,0-130.98-14.28-136.56-20.42-1.78-1.96-1.88-3.31-1.88-3.58l.38-1.19-1.03-.66c-27.27-24.15-11.27-135.64-10.54-140.56,7.5-23.39-13.95-54.71-22.99-66.5,57.4,16.21,114.14,83.67,114.73,84.37l6.43,7.71-23-73.98c28.64-.81,55.2-29.34,62.29-37.59,15.92,30.13-10.33,156.68-13.65,172.29h-51.61l-34.49-61.11-1.47,4.12c-18.56,51.85-.22,68.5,.57,69.18l.54,.47,206.84,4.89c.85-.02,1.68-.03,2.51-.03,19.37,0,34.19,6.39,44.04,19,25.29,32.33,10.91,95.76,9.88,100.13-104.73,196.47-159.79,237.71-187.55,237.71Z"/><path class="b" d="M1002.39,147.58c3.69,10.07,6.39,34.16-1.54,91.67-4.62,33.55-11.06,65.09-13.14,74.93h-48.82l-31.77-56.29-4.3-7.62-2.95,8.24c-19.02,53.13,.32,70.65,1.15,71.37l1.09,.94,1.44,.03,206.02,4.87h.2c.83-.02,1.63-.03,2.46-.03,18.72,0,33.01,6.14,42.47,18.23,24.33,31.1,10.94,92.25,9.57,98.18-46.77,87.71-87.68,152.06-121.6,191.28-25.91,29.95-47.46,45.14-64.06,45.14s-24.72-16.8-28.47-24.87c-.18-.39-.35-.75-.51-1.1-1.18-2.52-2.94-17.13,24.21-99.34,14.68-44.48,30.7-87.14,30.86-87.57l1.25-3.33-3.16-1.63-60.01-30.99,107.57,8.96-8.74,84.86-.94,9.11,7.32-5.5c16.74-12.57,30.95-33.44,42.23-62.02,8.34-21.11,11.79-38.34,11.93-39.02,1.96-9.39,.42-17.65-4.58-24.56-10.92-15.08-34.51-17.88-35.51-18l-.28-.03h-.29c-16.35,.52-31.93,.78-46.3,.78-55.48,0-95.35-3.75-118.5-11.16-15.78-5.05-17.72-10.01-17.92-10.77l.39-1.89-1.74-1.54c-10.89-9.65-16.1-36.51-15.07-77.68,.75-30.05,4.69-57.71,5.16-60.93,6.74-21.42-9.5-48.84-19.71-63.21,26.59,9.09,52.39,28.44,70.27,44.07,22.33,19.52,37.53,37.67,37.68,37.85l12.85,15.42-5.96-19.17-19.26-61.95c26.06-2.2,49.85-25.6,59.02-35.75m.83-7.09s-31.1,39.01-63.75,39.01c-.5,0-.99,0-1.49-.03l20.83,66.99s-60.89-73.08-121.55-86.48c0,0,35.48,41.41,26.32,69.43,0,0-17.72,116.94,11.17,142.52,0,0-5.46,26.36,140.41,26.36,14.03,0,29.45-.24,46.42-.78,0,0,43.49,4.87,36.63,37.76,0,0-13.73,69.43-52.65,98.66l9.16-88.92-131.62-10.96,77.83,40.2s-64.09,170.53-54.94,190.02c3.7,7.87,12.26,28.27,32.6,28.27,30.03,0,85.73-44.39,189.44-238.99,0,0,30.29-121.83-55.81-121.84-.85,0-1.69,.01-2.57,.04l-206.02-4.87s-18.31-15.84,0-66.99l32.92,58.32h54.39s32.87-149.68,12.27-177.69h0Z"/></g><g><path class="b" d="M1272,598.46c-1.59-15.84-5.24-46.7-12.45-83.5-7.74-39.53-20.97-92.59-42.34-140.71l52.12,81.42-.88-8.41c-.05-.49-5.25-49.68-13.18-100.35-10.71-68.49-21.18-107.02-31.1-114.54-11.51-8.72-35.59-13.35-61.08-18.25-26.81-5.16-54.53-10.49-70.67-20.85l-6.66-4.28,51.7,93.56c-10.02-6.3-30.38-19.99-50.31-38.72-25-23.49-54.34-59.87-53.63-100.72l356.84,59.84-51.64,92.15c3.85-18.74,9.74-51.01,6.18-57.74l-.74-1.41-1.54,.41c-.16,.04-16.67,4.38-36.17,4.38-15.06,0-27.84-2.52-37.97-7.5l-5.28-2.59,2.6,5.27c.17,.34,16.89,34.73,25.6,97.69,7.79,56.36,10.52,147.44-19.4,264.82Z"/><path class="b" d="M1035.52,145.49l351.71,58.98-44.17,78.82c.39-2.08,.78-4.21,1.15-6.35,5.96-33.86,3.51-38.51,2.46-40.49l-1.49-2.82-3.08,.82c-.16,.04-16.44,4.32-35.66,4.32-14.75,0-27.23-2.45-37.09-7.29l-10.54-5.17,5.19,10.54c.17,.34,16.79,34.59,25.44,97.31,5.08,36.84,6.45,76.14,4.07,116.82-2.57,43.95-9.54,89.63-20.75,136.07-1.99-17.23-5.49-42.94-11.27-72.45-6.65-33.96-17.35-77.89-33.76-120.15l35.33,55.21,9.11,14.24-1.77-16.81c-.05-.49-5.25-49.73-13.19-100.45-16.27-104.01-28.01-112.9-31.87-115.82-11.88-9-36.18-13.67-61.91-18.62-26.62-5.12-54.15-10.41-69.96-20.57l-13.32-8.56,7.66,13.86,44.02,79.65c-10.92-7.27-27.3-19.09-43.39-34.22-16.1-15.14-28.76-30.57-37.62-45.86-10.01-17.27-15.16-34.4-15.34-50.98m-3.92-4.71c-3.66,82.36,111.25,147.39,111.25,147.39l-51.5-93.2c32.05,20.59,108.73,21.67,131.62,39.01s43.49,213.5,43.49,213.5l-68.67-107.29c61.81,107.29,73.25,269.85,73.25,269.85,64.09-238.42-3.43-374.97-3.43-374.97,12.02,5.9,26.11,7.7,38.85,7.7,20.02,0,36.69-4.45,36.69-4.45,4.58,8.67-9.16,69.36-9.16,69.36l59.52-106.21-361.9-60.69h0Z"/></g><g><path class="b" d="M604.09,594.62c-6.56-17.91-51.86-143.04-52.2-181.85l-2.09,1.89,.62-3.82c-30.94-6.62-56.7-15.45-56.95-15.54l-1.72-.59-29.21,64.31h40.27l-15.67,37.78c-5.95-3.47-12.9-5.23-20.69-5.23-32.89,0-72.23,30.77-83.87,40.51v-52.19c77.52-69.8,86.56-146.84,80.46-199.24-5.88-50.48-26.59-88.4-31.36-96.57,3.62-2.3,7.96-3.47,12.92-3.47,27.59,0,65.94,35.17,66.32,35.53l3.08,2.85,.27-4.19c2.41-37.41,20.63-63.04,26.56-70.46,13.33,21.31,80.79,54.07,98.3,62.31l-57.56,25.17-.17,.12c-2.62,1.87-10.58,7.57-2.08,67.8,4.13,29.25,10.22,57.51,10.28,57.79l.32,1.47,41.44,2.84v54.49c-5.99,1.22-12.99,1.86-20.83,1.91l-.23,3.98-1.66-2.07c-.05,1.12-1.19,27.95,10.87,63.6,9.94,29.4,30.95,69.83,75.16,103.54-9.54-3.15-22.18-5.98-36.84-5.98-18.48,0-36.55,4.47-53.75,13.28Zm-79.38-340.53c-.57,0-1.96,.22-2.51,2.28-2.88,10.91-25.49,80.93-25.72,81.63l-.21,.66,.24,.65c5.98,16.23,38.67,17.98,52.45,17.98,2.03,0,3.22-.04,3.22-.04l2.42-.09-.54-2.36c-.06-.25-5.75-25.09-11.94-49.62-12.9-51.09-15.19-51.09-17.4-51.09Z"/><path class="b" d="M540.76,147.74c7.51,9.92,25.13,22.49,53.47,38.2,15.74,8.72,31.13,16.32,40.11,20.63l-53.36,23.34-.38,.17-.34,.24c-5.39,3.85-10.58,15.26-2.9,69.7,4.14,29.32,10.24,57.65,10.31,57.94l.64,2.94,3,.21,38.07,2.61v50.97c-5.5,1-11.82,1.52-18.85,1.56l-.25,3.99-3.63-.17c-.05,1.14-1.2,28.33,10.97,64.34,9.43,27.88,28.71,65.59,68,98.25-8.03-1.93-17.41-3.33-27.78-3.33-18.08,0-35.76,4.2-52.64,12.49-8.7-23.89-50.98-141.86-51.31-179.07l-3.7,.03,.64-3.9c-30.81-6.6-56.46-15.39-56.72-15.48l-3.44-1.19-1.5,3.31-27.17,59.83-2.57,5.65h40.38l-13.67,32.96c-5.8-2.93-12.4-4.42-19.69-4.42-30.89,0-67.14,26.41-81.87,38.28v-47.07c77.54-70.21,86.58-147.64,80.45-200.36-5.64-48.49-24.33-84.61-30.6-95.61,2.94-1.48,6.3-2.2,10.18-2.2,26.8,0,64.59,34.65,64.97,35l6.17,5.7,.54-8.38c2.18-33.79,17.51-57.87,24.47-67.19m8.19,211.54c2.04,0,3.25-.04,3.3-.05l4.83-.18-1.08-4.71c-.06-.25-5.75-25.12-11.95-49.67-13.12-51.94-15.38-52.59-19.2-52.59h-.15c-1.66,0-3.7,1-4.43,3.77-2.87,10.86-25.46,80.82-25.69,81.53l-.42,1.32,.48,1.3c6.41,17.41,40.13,19.29,54.32,19.29m-7.72-218.5s-25.99,28.13-28.94,73.9c0,0-38.97-36.06-67.68-36.06-5.74,0-11.07,1.44-15.6,4.9,0,0,101.59,161.18-48.43,295.49v57.44s47.94-42.87,85.87-42.87c7.8,0,15.18,1.81,21.63,6.19l17.72-42.74h-40.16l27.17-59.83s25.75,8.88,57.18,15.6h-.11c.38,42.44,53.11,184.65,53.11,184.65,19.8-10.58,38.59-14.11,54.84-14.11,30.48,0,52.04,12.4,54.61,13.95-107.03-68.39-101.8-177.03-101.8-177.03h-.09c8.23-.06,15.96-.74,22.82-2.31v-57.98l-41.8-2.86s-24.35-112.55-8.99-123.54l61.43-26.86s-93.32-42.74-102.77-65.94h0Zm7.72,214.5c-10.64,0-44.88-1.22-50.57-16.67,0,0,22.82-70.65,25.75-81.74,.14-.53,.33-.79,.57-.79,4.71-.01,27.4,99.15,27.4,99.15,0,0-1.16,.04-3.15,.04h0Z"/></g><g><path class="b" d="M132.14,523.92l-36.6,10.84c14.25-32.9,11.54-88.95-8.07-166.73-15.17-60.18-35.37-111.64-35.57-112.15l-.57-1.44-1.54,.19c-.24,.03-24.2,2.94-38.65,2.94-5.3,0-7.68-.4-8.72-.69,3.6-7.42,1.07-30.14,.11-37.6,67.59-6.23,114.1-35.52,126.99-44.53-2.34,32.83,7.94,50.38,17.22,59.41,7.32,7.12,15.03,10.14,19.26,11.34l-12.87,16.32-41.54-23.37,95.79,164.54,39.49-14.55,81.93-205.59,.04-.17c.11-.54,2.75-13.33-1.14-30.43-3.3-14.51-12.08-34.72-34.99-51.54,.17,0,.33,0,.5,0,20.46,0,71.72-8.96,118.04-89.44-1.75,12.04-3.89,32.09-3.01,53.93,1.7,42.29,14.18,72.79,36.21,88.78-17.95,.57-61.72,5.93-77.96,43.26-6.05,13.91-93.23,304.51-93.49,306.02l-1.37,8,33.39-43.65,31.41,27.22-68.98,105.7-135.3-76.59Z"/><path class="b" d="M408.03,20.56c-1.35,11.88-2.46,27.64-1.79,44.52,1.59,40.27,12.87,70.08,32.81,87.16-20.54,1.51-59.15,9.13-74.39,44.17-6.06,13.92-93.36,304.97-93.62,306.48l-2.75,16.01,9.87-12.9,27.16-35.51,28.49,24.69-67,102.66-132.93-75.25-1.48-.84-1.63,.48-31.84,9.42c6.54-17.58,8.83-41.17,6.79-70.32-1.87-26.75-7.35-58.31-16.3-93.81-15.2-60.3-35.45-111.88-35.65-112.4l-1.14-2.88-3.07,.38c-.24,.03-24.08,2.92-38.41,2.92-2.84,0-4.76-.11-6.05-.25,2.33-8.57,.81-25.11-.31-34.24,40.63-4.05,73.14-16.3,93.5-26.03,13.18-6.3,22.97-12.29,29.01-16.31-1.28,30.96,8.87,47.93,18.05,56.86,6.2,6.03,12.7,9.24,17.31,10.91l-10.04,12.73-33.64-18.92-12.82-7.21,7.4,12.71,91.24,156.73,1.69,2.9,3.15-1.16,37.08-13.67,1.67-.62,.66-1.66,81.54-204.61,.13-.32,.07-.33c.12-.55,2.84-13.77-1.14-31.29-3.15-13.87-11.2-32.83-31.32-49.27,22.49-1.5,67.67-13.92,109.7-81.96m7.15-20.56h0c-47.58,89.72-102.07,98.69-121.97,98.69-4.97,0-7.79-.56-7.79-.56,52.26,33.29,41.46,84.11,41.46,84.11l-81.54,204.61-37.08,13.67L117.02,243.79l36.63,20.6,15.89-20.14s-44.5-6.18-37.63-73.71c0,0-50.36,40.06-131.62,46.93,0,0,4.58,32.5,0,39.14-1.53,2.21,3.49,2.95,10.87,2.95,14.75,0,38.9-2.95,38.9-2.95,0,0,80.71,204.64,41.8,281.33l40.06-11.86,136.2,77.1,70.96-108.73-34.34-29.76-29.75,38.89c.27-1.55,87.27-291.59,93.35-305.56,17.17-39.48,66.82-42.11,79.77-42.11,2,0,3.12,.06,3.12,.06C390.01,120.94,415.14,.21,415.18,0h0Z"/></g><g><path class="b" d="M1761.46,684.96c-26.16-19.84-53.63-29.89-81.77-29.89s-51.56,10.5-64.24,18.14c15.72-22.18,21.89-46.5,18.33-72.46-6.23-45.51-41.65-88.23-70.27-116.06-30.9-30.04-60.75-49.69-61.05-49.88l-1.74-1.14-1.07,1.79c-26.92,45.03-34.83,77.97-23.53,97.89,8.95,15.78,27.69,18.71,36.58,19.18-39.84,35.12-69.34,52.92-87.73,52.92-5.83,0-10.43-1.9-13.67-5.63-7.96-9.16-5.84-26.56-5.71-27.57l31.3-161.22-2.28-.14c-.52-.03-1.05-.05-1.59-.05-17.76,0-46.6,16.83-56.59,23.01l8.11-81.09h68.32l19.16-99.12-65.06,37.74v-63.62c7.89-5.83,70.8-52.08,86.11-57.77,.53-.2,1.04-.29,1.55-.29,9.85,0,18.32,35.16,21.35,57.32l1.2,8.83,28.75-90.96c25.57,29.94,62.68,44.3,89.72,51.11,25.23,6.35,46.5,7.44,52.88,7.63l1.14,49.44c-19.3-15.96-42.43-19.43-58.85-19.43s-27.86,3.24-28.34,3.38l-2.39,.68,1.17,2.19c.45,.85,45.44,85.16,78.55,136.81,8.98,14,11.28,26.04,6.86,35.78-8.44,18.56-38.61,23.24-38.91,23.29l-.14,.02-.14,.04c-1.06,.32-2.56,.48-4.45,.48-23.84,0-96.5-25.05-97.23-25.3l-6.78-2.35,4.59,5.52c92.48,111.12,162.26,134.44,204.5,134.44,12.26,0,22.23-1.96,29.78-4.32-32.11,28.48-35.21,64.6-31.54,91.23,2.93,21.31,10.33,39.38,15.15,49.45Zm-253.48-326.6l1.83,.54c.32,.09,32.75,9.47,65.09,9.47,19.18,0,34.62-3.25,45.89-9.65l3.18-1.81-3.24-1.7c-.56-.3-56.51-30.26-86.72-89.84l-2.46-4.84-23.59,97.83Z"/><path class="b" d="M1546.74,148.86c25.79,28.51,61.89,42.39,88.39,49.06,23.59,5.94,43.32,7.32,51.41,7.64l1,43.32c-19.02-14.09-40.94-17.25-56.76-17.25s-28.39,3.31-28.89,3.45l-4.78,1.35,2.33,4.38c.45,.85,45.48,85.23,78.63,136.95,8.58,13.39,10.84,24.78,6.73,33.85-7.95,17.54-37.1,22.11-37.39,22.16l-.28,.04-.27,.08c-.6,.18-1.77,.39-3.88,.39-23.5,0-95.85-24.94-96.58-25.19l-13.56-4.69,9.18,11.03c92.98,111.71,163.36,135.16,206.04,135.16,8.75,0,16.35-.98,22.78-2.4-22.2,22.76-31.34,52.62-26.52,87.58,2.38,17.31,7.67,32.51,12.2,43.11-24.66-17.15-50.44-25.83-76.83-25.83-24.46,0-44.58,7.43-58.07,14.42,12.65-20.72,17.4-43.18,14.14-67-5.06-36.99-28.9-76.43-70.86-117.22-31.04-30.18-61.05-49.93-61.35-50.12l-3.49-2.28-2.14,3.58c-27.31,45.7-35.24,79.31-23.55,99.9,8.03,14.15,23.39,18.49,33.48,19.76-46.73,40.58-70.82,49.35-82.9,49.35-5.29,0-9.27-1.61-12.16-4.94-7.29-8.38-5.41-24.65-5.25-25.95l30.85-158.92,.87-4.48-4.55-.28c-.55-.03-1.13-.05-1.71-.05-16.5,0-41.97,13.92-54.2,21.22l7.53-75.3h68.16l.63-3.24,18.01-93.19,1.67-8.63-7.6,4.41-58.26,33.79v-59.14c24.8-18.34,72.28-52.25,84.81-56.9,.31-.11,.58-.17,.85-.17,.66,0,6.66,.74,13.51,26.49,3.82,14.36,5.84,28.96,5.86,29.1l2.41,17.64,5.37-16.98,24.99-79.09m28.16,221.5c19.53,0,35.3-3.33,46.88-9.91l6.36-3.61-6.48-3.41c-.56-.29-55.92-29.91-85.87-88.97l-4.91-9.69-2.55,10.56-21.87,90.7-.89,3.71,3.66,1.07c1.33,.39,33.03,9.55,65.66,9.55m-29.8-229.58l-27.17,85.97s-8.06-59.05-23.33-59.05c-.73,0-1.48,.14-2.24,.42-16.72,6.21-87.42,58.63-87.42,58.63v68.1l64.26-37.27-18.01,93.19h-68.48l-8.7,86.97s38.04-24.89,58.99-24.89c.5,0,.99,.01,1.47,.04l-30.87,159.04s-5.05,35.53,21.36,35.53c16.25,0,44.4-13.45,92.97-56.9,0,0-.83,.06-2.27,.06-13.38,0-79.36-5.27-14.3-114.12,0,0,203.24,132.95,104.19,246.01,0,0,29.95-25.43,74.13-25.43,25.56,0,55.88,8.51,87.94,35.37,0,0-59.71-100.37,24.36-156.52-5.06,3.07-19.99,10.67-43.93,10.67-41.75,0-110.91-23.12-202.97-133.72,0,0,73.43,25.41,97.88,25.41,2.04,0,3.73-.18,5.02-.56,0,0,66.89-9.94,33.44-62.12-33.44-52.18-78.47-136.67-78.47-136.67,0,0,11.68-3.3,27.8-3.3,18.13,0,41.89,4.18,60.96,21.94l-1.29-55.91s-96.47,0-145.35-60.88h0Zm29.8,225.58c-32.43,0-64.53-9.39-64.53-9.39l21.87-90.7c30.87,60.88,87.57,90.7,87.57,90.7-12.4,7.04-28.69,9.39-44.91,9.39h0Z"/></g></svg>